<svg viewBox="47.21421602787456 49.8556 159.2928222996516 137.6544" xmlns="http://www.w3.org/2000/svg" id="Capa_1" style="max-height: 500px" width="159.2928222996516" height="137.6544">
  <defs>
    <style>
      .cls-1 {
        fill: #7a937b;
      }
    </style>
  </defs>
  <g>
    <g>
      <path d="M178.53,154.34c-.23-3.69-.41-5.46-.45-7.37-.31-18.96-.63-37.93-.94-56.91-16.47.04-32.95.09-49.44.13-16.43,0-32.86.02-49.31.02-.04,16.23-.07,32.47-.11,48.72-.01,3.44,0,7.29-.12,10.14-.1,2.49-.38,5.45-.56,5.23-.21-.25-.39-3.69-.57-5.98-.05-.7-.06-2.14-.07-3.27-.13-18.89-.26-37.77-.39-56.68,17.01-.08,34.03-.17,51.07-.25,17.13-.02,34.29-.04,51.46-.06.1,10.51.2,21.03.29,31.56.07,9.01-.06,18.08-.21,26.6-.06,3.37-.42,5.34-.65,8.09Z" class="cls-1"/>
      <path d="M178.84,154.65c-1.62.18-2.4.35-3.24.36-30.48.34-60.97.55-91.51.29-1.51-.01-3.2,0-4.45-.12-1.09-.1-2.39-.38-2.3-.56.11-.21,1.62-.39,2.63-.57.31-.05.94-.06,1.43-.07,27.34-.46,54.7-.91,82.21-.61,3.96.04,7.94.29,11.69.54,1.48.1,2.35.48,3.55.75Z" class="cls-1"/>
      <path d="M149.94,123.02c-.17-1.12-.24-1.94-.41-2.61-.17-.67-.29-1.2-.38-1.77-1.08-5.07-4.01-9.69-8.09-12.83-2.04-1.57-4.34-2.8-6.8-3.55-2.46-.75-5.04-1.06-7.6-.93-2.56.12-5.09.69-7.45,1.69-2.35,1.02-4.51,2.45-6.36,4.21-3.71,3.51-6.14,8.33-6.67,13.41-.52,5.07.75,10.3,3.63,14.51,2.87,4.21,7.27,7.33,12.18,8.66,4.9,1.37,10.3.88,14.9-1.3,4.61-2.16,8.46-5.99,10.53-10.68.8-1.85,1.47-4.04,1.75-5.7.19-.72.32-1.52.45-2.13.14-.61.27-1.02.36-.96.17.14.37,2.27.25,3.71,0,.22-.04.55-.09.92-.09.36-.18.75-.26,1.09-1.1,4.75-3.88,9.05-7.61,12.22-3.78,3.1-8.55,5.1-13.49,5.32-4.93.36-9.95-1.04-14.12-3.72-4.13-2.74-7.47-6.77-9.17-11.48-1.78-4.68-1.92-9.93-.55-14.75.72-2.4,1.8-4.7,3.21-6.78,1.41-2.08,3.2-3.89,5.2-5.42,3.98-3.09,9.02-4.72,14.04-4.79,2.51.01,5.03.38,7.43,1.14,2.4.78,4.64,1.97,6.67,3.45,4.68,3.42,7.81,8.78,8.65,14.06.19,1.04.14,1.9.13,2.67-.1.79-.23,1.52-.32,2.35Z" class="cls-1"/>
      <path d="M143.45,123.02c-.13-1.59-.36-2.32-.49-3.11-.76-3.61-2.84-6.91-5.75-9.15-2.89-2.28-6.62-3.42-10.27-3.22-1.83.09-3.64.49-5.32,1.2-1.68.72-3.23,1.75-4.55,3-2.66,2.5-4.4,5.96-4.78,9.59-.37,3.63.53,7.37,2.59,10.39,2.05,3.02,5.21,5.25,8.72,6.2,3.51.98,7.37.63,10.66-.94,3.3-1.55,6.05-4.3,7.52-7.65.57-1.33,1.05-2.89,1.23-4.08.23-1.02.34-2.29.46-2.2.07.1.18,1.61.06,2.61,0,.15-.04.39-.07.64-.06.25-.13.53-.19.77-.78,3.34-2.75,6.35-5.37,8.56-2.66,2.17-6,3.55-9.46,3.7-3.45.24-6.95-.75-9.86-2.62-2.88-1.92-5.21-4.74-6.38-8.03-1.24-3.26-1.33-6.93-.37-10.29.99-3.35,3.05-6.4,5.86-8.49,2.77-2.16,6.28-3.29,9.78-3.34,1.75,0,3.5.26,5.18.79,1.67.54,3.24,1.37,4.65,2.4,3.27,2.38,5.5,6.08,6.13,9.78.14.73.13,1.33.16,1.87-.04.55-.09,1.06-.13,1.66Z" class="cls-1"/>
      <path d="M145.21,108.63c.53-.1.78-.18,1.05-.19,9.89-.26,19.79-.45,29.7-.41.49,0,1.04,0,1.45.05.35.05.78.18.75.28-.03.1-.52.2-.85.29-.1.03-.3.03-.47.04-8.87.31-17.75.61-26.68.54-1.28-.01-2.58-.12-3.79-.24-.48-.05-.76-.23-1.16-.36Z" class="cls-1"/>
      <path d="M77.33,109.21c.52-.1.77-.18,1.03-.19,9.75-.25,19.5-.44,29.28-.39.48,0,1.02,0,1.43.05.35.05.77.19.74.28-.03.1-.52.2-.84.29-.1.03-.3.03-.46.04-8.75.3-17.49.61-26.3.53-1.27-.01-2.54-.12-3.74-.24-.47-.05-.75-.23-1.14-.37Z" class="cls-1"/>
      <path d="M140.29,141.64c.61-.09.9-.17,1.22-.18,11.46-.17,22.93-.28,34.41-.14.57,0,1.2,0,1.68.06.41.05.9.19.86.28-.04.1-.61.2-.99.29-.11.03-.35.03-.54.04-10.28.23-20.57.46-30.91.3-1.49-.02-2.99-.14-4.39-.27-.56-.05-.88-.24-1.33-.37Z" class="cls-1"/>
      <path d="M77.59,141.64c.6-.09.89-.17,1.19-.18,11.23-.17,22.46-.28,33.72-.14.56,0,1.18,0,1.64.06.4.05.88.19.85.28-.04.1-.6.2-.97.29-.11.03-.35.03-.53.04-10.07.23-20.15.46-30.29.3-1.46-.02-2.93-.14-4.31-.27-.55-.05-.86-.24-1.31-.37Z" class="cls-1"/>
      <path d="M80.58,89.15c-.18-.49-.35-.73-.35-.98l-.1-2.73-.04-1.37-.04-2.22,9.82-.19,4.49-.03,5.54.03-.04,3.24-.05,2.2c-.01.46,0,.97-.12,1.35-.1.33-.38.73-.56.7-.21-.03-.39-.49-.57-.8-.05-.09-.06-.29-.07-.44l-.14-2.61-.07-1.3c-.01-.27-.02-.31-.03-.41l-.03-.25-.47.06-1.12.05-2.24.1-4.48.15c-1.5.04-2.99.06-4.49.07h-2.25s-1.12-.02-1.12-.02c-.11,0-.05-.01-.09-.02,0,0-.02.02-.02.03,0-.05,0,.15-.01.3l-.02.46c-.04,1.2-.29,2.41-.54,3.55-.1.45-.48.71-.75,1.08Z" class="cls-1"/>
      <path d="M104.69,89.15c-.18-.27-.35-.41-.35-.55l-.14-2.34-.06-1.17-.06-2.1,4.26-.11,1.66-.03h2.74s-.01,2.04-.01,2.04l-.02,1.07-.08,2.05c-.01.25,0,.54-.12.75-.1.18-.38.4-.56.39-.2-.02-.39-.27-.57-.44-.05-.05-.06-.16-.07-.24l-.22-2.27-.1-1.14c-.03-.22-.07-.26-.1-.35.04.09-1.52.17-2.53.22l-1.66.06h-.42s-.18,0-.18,0h0s0,0,0,0h-.01s0,0,0,0c0-.02,0,.02,0,.09v.17s-.07,1.33-.07,1.33c-.04.67-.29,1.34-.54,1.97-.1.25-.48.4-.75.6Z" class="cls-1"/>
      <path d="M143.31,89.05c.05-.66,0-1,.11-1.31l1.47-4.33,1.71-4.91,10.09-.15,4.73-.03h5.48s1.57,4.35,1.57,4.35l1.29,3.66c.19.56.44,1.18.5,1.68.05.44-.03,1.01-.21,1.04-.21.03-.59-.46-.89-.77-.09-.09-.19-.32-.26-.5l-3.23-7.67-.19.02h-.04s-.14.01-.14.01h-.3s-1.18.05-1.18.05l-2.36.08-4.73.12-4.74.06h-2.37s-1.19,0-1.19,0h-.3s-.14,0-.14,0h0s0,0,0,0l-1.37,3.45c-.58,1.44-1.35,2.82-2.1,4.1-.3.51-.77.69-1.19,1.04Z" class="cls-1"/>
      <path d="M146.73,89.86c.09-.46.1-.7.19-.92l2.42-6.22c5.57-.07,9.43-.11,15.1-.09.7,1.77,1.41,3.54,2.12,5.32.16.4.35.85.43,1.2.07.31.08.71-.01.72-.11,0-.36-.36-.55-.59-.06-.07-.13-.24-.19-.37l-2.39-5.4-3.37.08-3.61.06-3.61.03h-3.26s-1.02,2.37-1.02,2.37c-.45,1.04-.99,2.05-1.51,2.99-.21.37-.48.53-.73.8Z" class="cls-1"/>
    </g>
    <g>
      <g>
        <path d="M94.14,120.02c0,.67-.54,1.22-1.22,1.22s-1.22-.54-1.22-1.22.54-1.22,1.22-1.22,1.22.54,1.22,1.22Z" class="cls-1"/>
        <path d="M94.07,120.02c-.04-.12-.09-.16-.1-.21-.11-.5-.61-.85-1.09-.8-.49.02-.89.44-.93.9-.05.47.27.93.72,1.05.45.13.97-.1,1.17-.53.03-.08.06-.16.1-.26.03-.06.1-.15.14-.15.04,0,.09.12.11.21,0,.03,0,.08,0,.12-.1.54-.6,1-1.19,1.05-.58.06-1.2-.31-1.41-.88-.23-.56-.04-1.28.46-1.65.49-.39,1.24-.39,1.72,0,.28.21.43.56.44.87,0,.12-.08.2-.14.29Z" class="cls-1"/>
      </g>
      <g>
        <circle r="1.22" cy="137.28" cx="104.35" class="cls-1"/>
        <path d="M105.5,137.28c-.04-.11-.09-.16-.1-.21-.11-.5-.61-.85-1.09-.8-.49.02-.9.44-.93.9-.05.47.27.93.72,1.05.45.13.97-.1,1.17-.53.03-.08.06-.16.1-.26.03-.06.1-.15.14-.15.04,0,.09.12.11.21,0,.03,0,.08,0,.12-.1.54-.6,1-1.19,1.05-.58.06-1.2-.31-1.41-.88-.23-.56-.04-1.28.46-1.65.49-.39,1.24-.39,1.72,0,.28.21.43.56.44.87,0,.12-.08.2-.14.29Z" class="cls-1"/>
      </g>
      <g>
        <path d="M82.1,134.85c0,.67-.54,1.22-1.22,1.22s-1.22-.54-1.22-1.22.54-1.22,1.22-1.22,1.22.54,1.22,1.22Z" class="cls-1"/>
        <path d="M82.03,134.85c-.04-.11-.09-.16-.1-.21-.11-.5-.61-.85-1.09-.8-.49.02-.89.44-.93.9-.05.47.27.93.72,1.05.45.13.97-.1,1.17-.53.03-.08.06-.16.1-.26.03-.06.1-.15.14-.15.04,0,.09.12.11.21,0,.03,0,.08,0,.12-.1.54-.6,1-1.19,1.05-.58.06-1.2-.31-1.41-.88-.23-.56-.04-1.28.46-1.65.49-.39,1.24-.39,1.72,0,.28.21.43.56.44.87,0,.12-.08.2-.14.29Z" class="cls-1"/>
      </g>
      <g>
        <path d="M89.4,113.82c0,.67-.54,1.22-1.22,1.22s-1.22-.54-1.22-1.22.54-1.22,1.22-1.22,1.22.54,1.22,1.22Z" class="cls-1"/>
        <path d="M89.33,113.82c-.04-.12-.09-.16-.1-.21-.11-.5-.61-.85-1.09-.8-.49.02-.89.44-.93.9-.05.47.27.93.72,1.05.45.13.97-.1,1.17-.53.03-.08.06-.16.1-.26.03-.06.1-.15.14-.15.04,0,.09.12.11.21,0,.03,0,.08,0,.12-.1.54-.6,1-1.19,1.05-.58.06-1.2-.31-1.41-.88-.23-.56-.04-1.28.46-1.65.49-.39,1.24-.39,1.72,0,.28.21.43.56.44.87,0,.12-.08.2-.14.29Z" class="cls-1"/>
      </g>
      <g>
        <path d="M88.18,128.46c0,.67-.54,1.22-1.22,1.22s-1.22-.54-1.22-1.22.54-1.22,1.22-1.22,1.22.54,1.22,1.22Z" class="cls-1"/>
        <path d="M88.11,128.46c-.04-.12-.09-.16-.1-.21-.11-.5-.61-.85-1.09-.8-.49.02-.89.44-.93.9-.05.47.27.93.72,1.05.45.13.97-.1,1.17-.53.03-.08.06-.16.1-.26.03-.06.1-.15.14-.15.04,0,.09.12.11.21,0,.03,0,.08,0,.12-.1.54-.6,1-1.19,1.05-.58.06-1.2-.31-1.41-.88-.23-.56-.04-1.28.46-1.65.49-.39,1.24-.39,1.72,0,.28.21.43.56.44.87,0,.12-.08.2-.14.29Z" class="cls-1"/>
      </g>
      <g>
        <circle r="1.22" cy="114.28" cx="100.06" class="cls-1"/>
        <path d="M101.2,114.28c-.04-.12-.09-.16-.1-.21-.11-.5-.61-.85-1.09-.8-.49.02-.89.44-.93.9-.05.47.27.93.72,1.05.45.13.97-.1,1.17-.53.03-.08.06-.16.1-.26.03-.06.1-.15.14-.15.04,0,.09.12.11.21,0,.03,0,.08,0,.12-.1.54-.6,1-1.19,1.05-.58.06-1.2-.31-1.41-.88-.23-.56-.04-1.28.46-1.65.49-.39,1.24-.39,1.72,0,.28.21.43.56.44.87,0,.12-.08.2-.14.29Z" class="cls-1"/>
      </g>
      <g>
        <circle r="1.22" cy="137.78" cx="89.28" class="cls-1"/>
        <path d="M90.42,137.78c-.04-.12-.09-.16-.1-.21-.11-.5-.61-.85-1.09-.8-.49.02-.89.44-.93.9-.05.47.27.93.72,1.05.45.13.97-.1,1.17-.53.03-.08.06-.16.1-.26.03-.06.1-.15.14-.15.04,0,.09.12.11.21,0,.03,0,.08,0,.12-.1.54-.6,1-1.19,1.05-.58.06-1.2-.31-1.41-.88-.23-.56-.04-1.28.46-1.65.49-.39,1.24-.39,1.72,0,.28.21.43.56.44.87,0,.12-.08.2-.14.29Z" class="cls-1"/>
      </g>
      <g>
        <circle r="1.22" cy="119.39" cx="83.32" class="cls-1"/>
        <path d="M84.47,119.39c-.04-.11-.09-.16-.1-.21-.11-.5-.61-.85-1.09-.8-.49.02-.89.44-.93.9-.05.47.27.93.72,1.05.45.13.97-.1,1.17-.53.03-.08.06-.16.1-.26.03-.06.1-.15.14-.15.04,0,.09.12.11.21,0,.03,0,.08,0,.12-.1.54-.6,1-1.19,1.05-.58.06-1.2-.31-1.41-.88-.23-.56-.04-1.28.46-1.65.49-.39,1.24-.39,1.72,0,.28.21.43.56.44.87,0,.12-.08.2-.14.29Z" class="cls-1"/>
      </g>
      <g>
        <path d="M99.36,132.04c0,.67-.54,1.22-1.22,1.22s-1.22-.54-1.22-1.22.54-1.22,1.22-1.22,1.22.54,1.22,1.22Z" class="cls-1"/>
        <path d="M99.29,132.05c-.04-.12-.09-.16-.1-.21-.11-.5-.61-.85-1.09-.8-.49.02-.89.44-.93.9-.05.47.27.93.72,1.05.45.13.97-.1,1.17-.53.03-.08.06-.16.1-.26.03-.06.1-.15.14-.15.04,0,.09.12.11.21,0,.03,0,.08,0,.12-.1.54-.6,1-1.19,1.05-.58.06-1.2-.31-1.41-.88-.23-.56-.04-1.28.46-1.65.49-.39,1.24-.39,1.72,0,.28.21.43.56.44.87,0,.12-.08.2-.14.29Z" class="cls-1"/>
      </g>
      <g>
        <path d="M161.28,120.02c0,.67.54,1.22,1.22,1.22s1.22-.54,1.22-1.22-.54-1.22-1.22-1.22-1.22.54-1.22,1.22Z" class="cls-1"/>
        <path d="M161.21,120.02c-.04-.13-.06-.2-.05-.27.1-.64.72-1.17,1.4-1.14.68,0,1.3.56,1.38,1.25.1.69-.38,1.4-1.06,1.56-.67.2-1.44-.19-1.69-.82-.05-.12-.1-.27-.08-.38,0-.1.07-.21.11-.2.05,0,.09.12.14.19.01.02.02.06.04.1.14.47.59.78,1.04.77.45,0,.87-.31.99-.71.14-.41-.01-.88-.35-1.12-.33-.25-.82-.27-1.17-.03-.2.13-.39.32-.51.56-.04.09-.13.15-.2.24Z" class="cls-1"/>
      </g>
      <g>
        <circle r="1.22" cy="137.28" cx="151.07" class="cls-1"/>
        <path d="M149.78,137.28c-.04-.13-.06-.2-.05-.27.1-.64.72-1.17,1.4-1.14.68,0,1.3.56,1.38,1.25.1.69-.38,1.4-1.06,1.56-.67.2-1.44-.19-1.69-.82-.05-.12-.1-.27-.08-.38,0-.1.07-.21.11-.2.05,0,.09.12.14.19.01.02.02.06.04.1.14.47.59.78,1.04.77.45,0,.87-.31.99-.71.14-.41-.01-.88-.35-1.12-.33-.25-.82-.27-1.17-.03-.2.13-.4.32-.51.56-.04.09-.13.15-.2.24Z" class="cls-1"/>
      </g>
      <g>
        <circle r="1.22" cy="134.85" cx="174.53" class="cls-1"/>
        <path d="M173.24,134.85c-.04-.13-.06-.2-.05-.27.1-.64.72-1.17,1.4-1.14.68,0,1.3.56,1.38,1.25.1.69-.38,1.4-1.06,1.56-.67.2-1.44-.19-1.69-.82-.05-.12-.1-.27-.08-.38,0-.1.07-.21.11-.2.05,0,.09.12.14.19.01.02.02.06.04.1.14.47.59.78,1.04.77.45,0,.87-.31.99-.71.14-.41-.01-.88-.35-1.12-.33-.25-.82-.27-1.17-.03-.2.13-.39.32-.51.56-.04.09-.13.15-.2.24Z" class="cls-1"/>
      </g>
      <g>
        <path d="M166.02,113.82c0,.67.54,1.22,1.22,1.22s1.22-.54,1.22-1.22-.54-1.22-1.22-1.22-1.22.54-1.22,1.22Z" class="cls-1"/>
        <path d="M165.95,113.82c-.04-.13-.06-.2-.05-.27.1-.64.72-1.17,1.4-1.14.68,0,1.3.56,1.38,1.25.1.69-.38,1.4-1.06,1.56-.67.2-1.44-.19-1.69-.82-.05-.12-.1-.27-.08-.38,0-.1.07-.21.11-.2.05,0,.09.12.14.19.01.02.02.06.04.1.14.46.59.78,1.04.77.45,0,.87-.31.99-.71.14-.41-.01-.88-.35-1.12-.33-.25-.82-.27-1.17-.03-.2.13-.39.32-.51.56-.04.09-.13.15-.2.24Z" class="cls-1"/>
      </g>
      <g>
        <path d="M167.24,128.46c0,.67.54,1.22,1.22,1.22s1.22-.54,1.22-1.22-.54-1.22-1.22-1.22-1.22.54-1.22,1.22Z" class="cls-1"/>
        <path d="M167.17,128.46c-.04-.13-.06-.2-.05-.27.1-.64.72-1.17,1.4-1.14.68,0,1.3.56,1.38,1.25.1.69-.38,1.4-1.06,1.56-.67.2-1.44-.19-1.69-.82-.05-.12-.1-.27-.08-.38,0-.1.07-.21.11-.2.05,0,.09.12.14.19.01.02.02.06.04.1.14.47.59.78,1.04.77.45,0,.87-.31.99-.71.14-.41-.01-.88-.35-1.12-.33-.25-.82-.27-1.17-.03-.2.13-.4.32-.51.56-.04.09-.13.15-.2.24Z" class="cls-1"/>
      </g>
      <g>
        <circle r="1.22" cy="114.28" cx="155.36" class="cls-1"/>
        <path d="M154.08,114.28c-.04-.13-.06-.2-.05-.27.1-.64.72-1.17,1.4-1.14.68,0,1.3.56,1.38,1.25.1.69-.38,1.4-1.06,1.56-.67.2-1.44-.19-1.69-.82-.05-.12-.1-.27-.08-.38,0-.1.07-.21.11-.2.05,0,.09.12.14.19.01.02.02.06.04.1.14.47.59.78,1.04.77.45,0,.87-.31.99-.71.14-.41-.01-.88-.35-1.12-.33-.25-.82-.27-1.17-.03-.2.13-.4.32-.51.56-.04.09-.13.15-.2.24Z" class="cls-1"/>
      </g>
      <g>
        <circle r="1.22" cy="137.78" cx="166.14" class="cls-1"/>
        <path d="M164.86,137.78c-.04-.13-.06-.2-.05-.27.1-.64.72-1.17,1.4-1.14.68,0,1.3.56,1.38,1.25.1.69-.38,1.4-1.06,1.56-.67.2-1.44-.19-1.69-.82-.05-.12-.1-.27-.08-.38,0-.1.07-.21.11-.2.05,0,.09.12.14.19.01.02.02.06.04.1.14.47.59.78,1.04.77.45,0,.87-.31.99-.71.14-.41-.01-.88-.35-1.12-.33-.25-.82-.27-1.17-.03-.2.13-.4.32-.51.56-.04.09-.13.15-.2.24Z" class="cls-1"/>
      </g>
      <g>
        <circle r="1.22" cy="119.39" cx="172.1" class="cls-1"/>
        <path d="M170.81,119.39c-.04-.13-.06-.2-.05-.27.1-.64.72-1.17,1.4-1.14.68,0,1.3.56,1.38,1.25.1.69-.38,1.4-1.06,1.56-.67.2-1.44-.19-1.69-.82-.05-.12-.1-.27-.08-.38,0-.1.07-.21.11-.2.05,0,.09.12.14.19.01.02.02.06.04.1.14.46.59.78,1.04.77.45,0,.87-.31.99-.71.14-.41-.01-.88-.35-1.12-.33-.25-.82-.27-1.17-.03-.2.13-.4.32-.51.56-.04.09-.13.15-.2.24Z" class="cls-1"/>
      </g>
      <g>
        <path d="M156.06,132.04c0,.67.54,1.22,1.22,1.22s1.22-.54,1.22-1.22-.54-1.22-1.22-1.22-1.22.54-1.22,1.22Z" class="cls-1"/>
        <path d="M155.99,132.05c-.04-.13-.06-.2-.05-.27.1-.64.72-1.17,1.4-1.14.68,0,1.3.56,1.38,1.25.1.69-.38,1.4-1.06,1.56-.67.2-1.44-.19-1.69-.82-.05-.12-.1-.27-.08-.38,0-.1.07-.21.11-.2.05,0,.09.12.14.19.01.02.02.06.04.1.14.47.59.78,1.04.77.45,0,.87-.31.99-.71.14-.41-.01-.88-.35-1.12-.33-.25-.82-.27-1.17-.03-.2.13-.4.32-.51.56-.04.09-.13.15-.2.24Z" class="cls-1"/>
      </g>
    </g>
    <path d="M120.6,113.52c-.11.19-.15.31-.23.37-2.94,2.26-4.6,5.9-4.64,9.54,0,.18.03.38-.02.54-.04.13-.17.31-.26.31-.1,0-.21-.18-.31-.3-.03-.04-.04-.12-.05-.18-.47-3.45.83-7.25,3.59-9.6.39-.34.87-.58,1.34-.74.18-.07.38.03.57.06Z" class="cls-1"/>
    <path d="M145.98,105.04c-.27-.23-.43-.32-.53-.46-3.76-5.17-10.21-8.06-16.51-7.76-.31.02-.66.07-.92.04-.23-.02-.52-.13-.52-.22,0-.1.31-.24.52-.35.06-.03.2-.06.3-.07,5.83-.89,12.18,1.31,16.18,5.85.3.31.55.68.77,1.04.24.36.44.73.61,1.1.14.29.08.55.12.83Z" class="cls-1"/>
  </g>
  <g>
    <path d="M75.19,83.33c-.26-.05-.4-.04-.51-.1-4.05-2.2-8.07-4.46-11.98-6.92-.19-.12-.42-.25-.55-.39-.12-.13-.21-.35-.16-.42.07-.08.31-.04.49-.04.05,0,.14.04.21.08,3.67,1.91,7.35,3.82,10.85,6.07.5.32.96.73,1.38,1.13.17.16.18.39.27.6Z" class="cls-1"/>
    <path d="M73.54,102.47c-.27.04-.41.1-.55.08-4.87-.7-9.74-1.46-14.57-2.46-.24-.05-.51-.09-.7-.18-.16-.08-.35-.26-.32-.34.04-.1.29-.15.47-.21.05-.02.16,0,.23,0,4.39.55,8.77,1.11,13.12,2.04.63.13,1.24.37,1.81.6.23.09.33.3.5.47Z" class="cls-1"/>
    <path d="M93.86,77.8c-.31-.2-.48-.28-.61-.41-4.62-4.88-9.2-9.81-13.61-14.91-.22-.25-.47-.53-.61-.77-.12-.21-.21-.52-.13-.57.09-.05.39.13.6.24.07.03.16.13.24.21,4.2,4.33,8.41,8.66,12.36,13.28.57.66,1.07,1.4,1.52,2.1.18.28.17.55.25.83Z" class="cls-1"/>
    <path d="M109.66,70.04c-.2-.25-.33-.36-.39-.5-2.3-5.26-4.54-10.55-6.57-15.94-.1-.27-.23-.56-.26-.8-.03-.21,0-.49.1-.51.1-.02.3.21.45.35.05.04.1.15.13.24,2.13,4.69,4.27,9.39,6.06,14.25.26.7.43,1.44.57,2.14.06.28-.06.5-.1.76Z" class="cls-1"/>
    <path d="M127.67,69.56c-.06-.28-.13-.42-.12-.57.39-5.17.84-10.33,1.52-15.48.03-.25.06-.54.14-.75.07-.18.23-.38.32-.36.1.03.17.3.24.47.02.05.02.16.01.25-.27,4.64-.54,9.29-1.19,13.92-.09.67-.29,1.33-.48,1.95-.08.24-.28.37-.44.56Z" class="cls-1"/>
    <path d="M148.51,67.25c.03-.29.01-.45.06-.58,1.98-4.87,4.02-9.71,6.28-14.46.11-.23.22-.5.37-.68.12-.15.34-.3.42-.25.09.06.07.34.08.53,0,.06-.04.16-.07.24-1.71,4.4-3.42,8.79-5.48,13.06-.3.61-.69,1.19-1.07,1.73-.15.21-.38.27-.59.41Z" class="cls-1"/>
    <path d="M164.81,76.23c.13-.27.17-.42.27-.53,3.6-3.93,7.26-7.82,11.08-11.55.19-.18.39-.4.59-.52.17-.1.43-.17.48-.09.06.09-.06.34-.12.53-.02.06-.09.14-.15.2-3.18,3.58-6.36,7.16-9.83,10.5-.5.48-1.07.89-1.62,1.27-.22.15-.46.12-.7.18Z" class="cls-1"/>
    <path d="M185.52,92.35c.24-.23.34-.37.48-.45,5.23-2.94,10.5-5.82,15.88-8.5.27-.13.56-.29.8-.36.21-.05.51-.05.53.04.03.1-.19.32-.32.49-.04.05-.15.11-.23.16-4.66,2.7-9.32,5.41-14.19,7.79-.7.34-1.45.6-2.16.83-.28.09-.52,0-.79,0Z" class="cls-1"/>
    <path d="M199.92,115.27c-.25.09-.37.17-.5.17-4.66.12-9.32.18-13.98,0-.23,0-.49,0-.68-.07-.17-.05-.36-.2-.35-.29.02-.1.25-.19.4-.28.05-.03.14-.03.22-.03,4.18-.18,8.36-.37,12.56-.18.6.03,1.21.16,1.78.29.23.05.36.24.54.38Z" class="cls-1"/>
    <path d="M204.94,137.07c-.31.02-.47.07-.62.04-5.54-1.06-11.07-2.19-16.55-3.55-.27-.07-.58-.13-.79-.24-.19-.09-.39-.28-.35-.37.04-.1.34-.13.54-.17.06-.01.18,0,.27.02,4.99.88,9.97,1.76,14.91,3.02.71.18,1.4.46,2.05.73.26.11.37.33.56.51Z" class="cls-1"/>
    <path d="M200.61,165.94c-.32-.07-.49-.07-.63-.14-5.2-2.64-10.36-5.33-15.43-8.23-.25-.14-.54-.29-.72-.46-.16-.14-.31-.39-.25-.46.07-.08.37-.02.58-.01.06,0,.17.06.26.1,4.7,2.3,9.4,4.6,13.94,7.24.65.38,1.26.85,1.83,1.3.22.18.28.43.42.65Z" class="cls-1"/>
    <path d="M175.02,179.21c-.22-.15-.35-.21-.43-.31-2.83-3.77-5.6-7.58-8.19-11.53-.13-.2-.28-.41-.34-.6-.05-.17-.05-.41.03-.45.09-.04.3.09.47.17.05.02.11.1.16.16,2.6,3.34,5.2,6.68,7.5,10.26.33.51.58,1.09.81,1.64.09.22,0,.44,0,.66Z" class="cls-1"/>
    <path d="M147.16,183.62c-.16-.22-.27-.32-.3-.45-1.42-4.6-2.78-9.21-3.92-13.9-.06-.23-.13-.49-.13-.69,0-.18.09-.41.18-.42.1-.01.26.2.38.33.04.04.07.13.09.21,1.35,4.11,2.7,8.21,3.69,12.44.14.61.19,1.25.22,1.85.01.24-.14.42-.22.64Z" class="cls-1"/>
    <path d="M119.42,186.15c-.09-.28-.16-.41-.17-.56-.06-5.21-.06-10.42.17-15.64.01-.26.01-.55.07-.76.05-.19.2-.41.29-.39.1.02.19.28.28.45.03.05.03.16.03.25.13,4.68.27,9.36.02,14.05-.04.68-.17,1.35-.31,1.99-.06.25-.25.4-.39.6Z" class="cls-1"/>
    <path d="M90.07,182.67c.05-.3.04-.46.1-.59,2.3-4.89,4.65-9.76,7.22-14.52.13-.24.26-.51.41-.68.13-.15.36-.29.44-.24.08.06.05.35.04.54,0,.06-.05.16-.08.24-1.99,4.42-3.99,8.85-6.33,13.12-.34.62-.77,1.19-1.18,1.72-.16.21-.4.26-.62.39Z" class="cls-1"/>
    <path d="M60.67,168.31c.19-.26.26-.42.38-.52,4.5-3.71,9.03-7.37,13.72-10.85.23-.17.48-.38.71-.48.2-.09.48-.13.52-.05.05.09-.12.35-.22.53-.03.06-.12.14-.19.2-3.99,3.39-7.98,6.77-12.22,9.88-.61.45-1.29.82-1.93,1.16-.25.13-.5.08-.77.12Z" class="cls-1"/>
    <path d="M48.68,141.25c.35-.24.5-.39.7-.47,7.16-3.06,14.35-6.06,21.63-8.84.36-.14.76-.3,1.08-.37.28-.06.64-.05.65.04.01.11-.31.34-.52.52-.06.05-.21.12-.33.17-6.4,2.81-12.79,5.63-19.37,8.1-.95.36-1.94.62-2.87.86-.37.09-.65,0-.98-.01Z" class="cls-1"/>
    <path d="M73.06,119.44c-.3.12-.45.21-.61.23-5.81.62-11.64,1.18-17.49,1.5-.29.02-.61.05-.86,0-.21-.03-.47-.16-.46-.25.01-.1.29-.22.48-.32.06-.03.18-.05.27-.06,5.21-.63,10.42-1.27,15.69-1.53.76-.04,1.53.02,2.26.1.29.03.47.21.71.32Z" class="cls-1"/>
  </g>
</svg>