<?xml version="1.0" encoding="UTF-8"?>
<svg id="Capa_1" xmlns="http://www.w3.org/2000/svg" viewBox="0 0 430 1131">
  <defs>
    <style>
      .cls-1 {
        letter-spacing: 0em;
      }

      .cls-2 {
        letter-spacing: 0em;
      }

      .cls-3 {
        letter-spacing: -.01em;
      }

      .cls-4, .cls-5 {
        stroke: #353533;
        stroke-width: .25px;
      }

      .cls-4, .cls-5, .cls-6 {
        stroke-miterlimit: 10;
      }

      .cls-7 {
        letter-spacing: 0em;
      }

      .cls-5, .cls-6, .cls-8, .cls-9, .cls-10, .cls-11, .cls-12 {
        fill: #353533;
      }

      .cls-6 {
        stroke: #000;
      }

      .cls-8 {
        font-size: 14px;
        letter-spacing: .1em;
      }

      .cls-8, .cls-11 {
        font-family: JustTheWayYouAre, 'Just The Way You Are';
      }

      .cls-9 {
        font-size: 23.96px;
      }

      .cls-9, .cls-10 {
        font-family: BrittanySignatureRegular, 'Brittany Signature';
      }

      .cls-10 {
        font-size: 23.96px;
      }

      .cls-11 {
        font-size: 13px;
        letter-spacing: .1em;
      }
    </style>
  </defs>
  <path class="cls-12" d="M349.81,175.58l.19-.24h-41.08l-6.61-10.58-.08-.13-1.6,1,6.06,9.71h-12.38l26.9,34.67v20.8h-9.12v1.88h20.12v-1.88h-9.12v-20.8l26.71-34.43ZM311.93,183.71h-5.27v1.88h6.45l8.71,13.95.08.13,1.6-1-8.17-13.08h14.34v-1.88h-15.52l-4.05-6.49h36.06l-23.99,30.93-23.99-30.93h9.71l4.05,6.49Z"/>
  <g>
    <path class="cls-12" d="M350.6,535.48c-.43-13.17-9.89-24.26-22.87-26.69-.24-2.68-2.46-4.79-5.2-4.79s-4.98,2.12-5.2,4.81c-6.23,1.17-11.92,4.42-16.08,9.25-4.19,4.86-6.56,11.01-6.77,17.42h-4.21v1.48h64.54v-1.48h-4.19ZM322.52,513.01c-2.08,0-3.76-1.69-3.76-3.77s1.69-3.76,3.76-3.76,3.76,1.69,3.76,3.76-1.69,3.77-3.76,3.77ZM295.95,535.48c.21-6.05,2.45-11.86,6.41-16.45,3.9-4.52,9.21-7.58,15.02-8.72.49,2.39,2.61,4.19,5.14,4.19s4.65-1.8,5.14-4.19c12.17,2.38,21.01,12.79,21.43,25.17h-53.15Z"/>
    <path class="cls-12" d="M349.92,537.95c0,1.67-1.1,3.03-2.46,3.03h-49.88c-1.36,0-2.46-1.36-2.46-3.03v-.13h-1.48v.13c0,2.49,1.77,4.51,3.94,4.51h49.88c2.18,0,3.94-2.02,3.94-4.51v-.13h-1.48v.13Z"/>
  </g>
  <g>
    <line class="cls-6" x1="217.27" y1="1049.57" x2="217.27" y2="68.87"/>
    <g>
      <g>
        <polyline class="cls-12" points="221.73 1080.29 221.69 1080.29 221.73 1080.29"/>
        <polygon class="cls-12" points="227.1 1084.6 227.1 1084.6 227.08 1084.65 227.14 1084.6 227.1 1084.6 227.1 1084.6"/>
        <polygon class="cls-12" points="227.05 1084.69 227.08 1084.65 227 1084.7 227.05 1084.69"/>
        <path class="cls-12" d="M217.31,1049.38l-.03-.05h0c.08-.11.15-.22.22-.33h0c0-.17,0-.32,0-.48.18-.13.17-.23-.05-.29v-.04s-.03.03-.03.03h.02s.03.33.03.33h0c-.09.16-.08.31.02.44-.08.12-.16.25-.24.37l.05.03Z"/>
        <path class="cls-12" d="M201.68,1083.9c.45-.6.9-1.19,1.35-1.78h0c-.74.77-1.48,1.55-2.31,2.42.51-.04.73-.33.96-.63Z"/>
        <polygon class="cls-12" points="205.44 1098.74 205.41 1098.73 205.41 1098.75 205.44 1098.74"/>
        <path class="cls-12" d="M205.33,1098.87l.09-.04c.13-.09-.03.02-.01-.09l-.08.12Z"/>
        <polygon class="cls-12" points="227.14 1084.61 227.14 1084.6 227.14 1084.6 227.14 1084.61"/>
        <polygon class="cls-12" points="221.69 1080.29 221.74 1080.33 221.73 1080.29 221.69 1080.29"/>
        <polygon class="cls-12" points="224.29 1082.7 224.25 1082.66 224.25 1082.7 224.29 1082.7"/>
        <path class="cls-12" d="M212.01,1060.11c-1.15,1.44-2.3,2.89-3.23,4.49-1.01,1.75-1.6,3.6-1.6,5.63,0,1.53-.41,2.94-.91,4.4-.6,1.72-1.55,3.14-2.65,4.52-.46.57-.97,1.03-1.73,1.17-1.43.27-2.65,1.06-3.9,1.73-.91.49-1.48,1.27-1.85,2.29-.44,1.22-.73,2.39-.52,3.69.1.63-.19,1.23-.35,1.84-.38,1.47.05,1.88,1.52,1.46.93-.27,1.84-.59,2.75-.92.82-.3,1.39-.85,1.85-1.62,1.15-1.94,1.85-4.08,2.41-6.2.37-1.39.98-2.54,1.71-3.7.54-.85,1-1.73,1.61-2.8.49,1.69.92,3.18,1.02,4.75.05.67.09,1.35.28,1.99.47,1.55.48,3.15.6,4.74.08,1.01-.4,1.76-1.34,2.17-.34.15-.72.23-1.09.33-1.41.39-2.5,1.2-3.18,2.5-.39.75-.83,1.46-1.34,2.12-.73.94-.78,1.95-.3,2.96.53,1.11,1.02,2.2,1.2,3.43.1.69.54.92,1.19.71.35-.11.69-.31,1-.53.49-.35,1.01-.59,1.58-.75,1.71-.46,2.89-1.47,3.29-3.28.09-.41.28-.79.42-1.19.42-1.21.58-2.43.26-3.72-.35-1.38-.49-2.78-.29-4.23.24-1.85,0-3.69-.51-5.49-.14-.48-.33-.98-.33-1.47.02-1.83-.36-3.59-.83-5.34-.3-1.15-.25-2.32.03-3.5.3-1.27.55-2.55.7-3.85.15-1.36.77-2.47,1.59-3.5,1.02-1.28,2.04-2.56,3.05-3.85.33-.42.61-.88.92-1.33.39.26.35.63.37.94.17,3.09,1.54,5.73,3.06,8.31.73,1.23,1.5,2.43,2.28,3.63.39.61.48,1.21.27,1.91-.45,1.49-.85,3.01-.89,4.57-.04,1.66.19,3.28,1.2,4.68l.13.21c1.64,1.21,3.09,2.74,5.28,2.99.75.09,1.5.2,2.24.35,1.95.41,3.31,1.56,4.15,3.36.18.4.26,1.01.9.81.59-.19.61-.75.56-1.27-.08-.73-.39-1.37-.8-1.97-.12-.17-.27-.32-.41-.48-1.17-1.29-2.24-2.61-2.36-4.47-.03-.48-.29-.97-.52-1.41-.45-.88-.74-1.79-.79-2.77-.07-1.38-.78-2.38-1.85-3.14-.86-.61-1.72-1.23-2.74-1.53-.84-.25-1.47-.79-2.18-1.23-.29-.18-.53-.43-.63-.76-.5-1.59-1.51-2.9-2.35-4.3-1.03-1.71-1.81-3.51-2.19-5.47-.21-1.08-.49-2.13-.81-3.18-.4-1.28-.45-2.56.15-3.82.23-.49.37-1.03.6-1.53.82-1.79,1.22-3.66,1.06-5.64-.06-.75-.02-1.51.03-2.27.1-1.72,0-3.42-.38-5.09-.08-.07-.15-.15-.25-.22-.12-.09-.26-.16-.4-.23.64,3.15.25,6.32.31,9.48.02,1.43-.38,2.79-1.21,4-.22-.32.02-.6.09-.89.12-.49.36-.97.19-1.5-.52,1.57-1.04,3.13-1.77,4.61-.37.75-.7,1.52-1.52,2.35.43-1.09.69-1.94,1.09-2.72,1.27-2.5,1.67-5.2,1.8-7.94.13-2.6.21-5.2.19-7.8-.19-.07-.38-.14-.58-.19-.1,3.75-.03,7.51-.56,11.23-.45,3.21-1.71,6.13-3.75,8.68ZM200.31,1089.32c-.19.16-.4.32-.64.4-1.03.36-2.05.73-3.1,1.02-.72.2-1.01-.15-.79-.91.14-.48.37-.94.36-1.46-.01-.63-.06-1.26-.02-1.89.07-1.04.37-1.24,1.38-.96.16.04.32.1.47.18.66.36.73.71.36,1.41-.29.56-.83.99-.91,1.74.54-.4.87-.89,1.17-1.39.23-.4.42-.48.89-.24.86.44,1.49.17,2-.64.19-.3.19-.74.62-.91-.12.81-1.29,3.23-1.79,3.65ZM200.37,1083.17c.87-.38,1.65-1.01,2.66-1.07h0c.08-.16.09-.41.43-.32,0,.79-.35,1.43-.7,2.1-.39.76-1.11,1.25-1.51,2-.64,1.2-.97,1.21-1.93.24-.49-.5-.93-1.06-1.73-1.17-.87-.12-1.02-.49-.53-1.21.51-.75,1.23-1.27,2.05-1.61,1.05-.43,2.11-.82,3.18-1.19.29-.1.63-.25,1,.17-1.33,1.19-3.38,1.22-4.63,2.82.76-.13,1.2-.53,1.71-.75ZM203.48,1080.36c-.22-.18-.08-.38.06-.53.47-.5.91-1.03,1.47-1.44-.05.77-.63,1.29-.99,1.9-.12.21-.36.21-.54.06ZM205.24,1078.24l-.19.1-.03-.21c.06-.15.19-.36.34-.27.17.11-.02.27-.12.38ZM206.13,1076.77l-.08.05-.03-.07.08-.05.03.07ZM203.44,1094.71c-.05-1.49,1.01-3.06,2.58-3.71.46-.19.94-.53,1.68-.21-1.32.91-2.48,1.79-3.12,3.37.9-.75,1.48-1.61,2.35-2.27.18.89-.78,1.48-.22,2.3.44-.29.49-.74.68-1.1.21-.41.35-.86.76-1.25.62.37.57,1.13,1.04,1.46.5.35.46.76.33,1.21-.1.36-.24.72-.38,1.07-.5,1.33-1.62,1.75-2.88,1.06-.34-.19-.67-.32-1.06-.3-.99.04-1.73-.66-1.76-1.62ZM210.28,1094.16c.06.09.08.18.05.29-.09-.08-.1-.18-.05-.29ZM210.33,1094.53c0,.19-.05.36-.21.47-.09-.23.06-.36.21-.47ZM202.59,1094.69c.74,1.27,1.17,2.58.64,4.1-1.49-1.83-1.63-2.82-.64-4.1ZM209.42,1097.51c-.28,1.22-1.14,1.94-2.31,2.26-.9.25-1.75.56-2.49,1.15-.23.18-.53.36-.81.22-.31-.16-.25-.51-.21-.8.13-.95.52-1.86.46-2.85-.02-.26.25-.25.42-.35,1-.65,1.61.09,2.38.54-.36.62-.91.82-1.43,1.06h.03c.8.17,1.29-.4,1.87-.77,1.17-.73,2.25-1.54,2.79-2.88.18.92-.49,1.61-.68,2.43ZM210.24,1093.35c-.46-.65-.54-1.35-.28-2.11.32.67.52,1.36.28,2.11ZM208.01,1075.34c.37,1.8,1.07,3.54.94,5.44-.03.45.03.94.16,1.37.73,2.32.86,4.68.69,7.1-.07.92-.1,1.78-.81,2.55-.32-.53-.57-1.07-.2-1.63.6-.91.53-1.91.5-2.91-.05-1.81-.37-3.58-.62-5.37-.24-1.7-.42-3.41-.87-5.08-.15-.56-.15-1.14,0-1.71.08.08.19.15.21.24ZM233.65,1090.06c-.06-.08-.12-.16-.17-.24.11.03.28.02.17.24ZM224.74,1075.16c.95.37,1.79.92,2.62,1.5.87.6,1.49,1.4,1.59,2.47.12,1.32.47,2.55,1.07,3.72.17.33.31.71.34,1.07.12,1.71,1.1,2.96,2.19,4.14.34.37.7.73.92,1.19.09.19.16.37-.02.54-.64-.86-1.22-1.76-2.24-2.28-1.25-.64-2.56-1.02-3.94-1.15-2.07-.2-3.51-1.09-4.01-3.28-.23-1.02-.66-2.03-1.53-2.75.01.72.38,1.32.66,1.96.23.52.49,1.04.48,1.73-.97-.48-1.35-1.25-1.62-2.09-.46-1.42-.56-2.88-.3-4.35.15-.87.18-1.77.58-2.63.49.34.55.77.69,1.16.36.99.53,2.02.62,3.07.11,1.29.41,2.54,1.4,3.48.03-.72-.36-1.32-.52-1.99-.26-1.04-.48-2.07-.4-3.34.51.57.85,1.05,1.29,1.42,1.08.89,1.61,1.98,1.61,3.38,0,.45.09.92.2,1.36.11.42.21.88.67,1.09-.03-.38-.21-.77,0-1.31.68.74,1.29,1.35,2.29,1.92-.38-.42-.55-.67-.77-.84-.88-.66-1.37-1.56-1.65-2.6-.24-.85-.64-1.64-1.12-2.39-.13-.2-.38-.37-.08-.74.73.52,1.47,1.04,2.28,1.62-.1-.72-.53-1.09-.91-1.47-.56-.58-1.31-.9-2-1.3-1.24-.71-1.91-1.81-2.29-3.37.7.5,1.27.82,1.89,1.05ZM216.82,1054.33c.06.3-.11.49-.32.67-.09-.32.1-.5.32-.67ZM216.48,1055.05c.09.22,0,.38-.18.5-.14-.24.02-.37.18-.5ZM216.04,1055.84c.04-.1.15-.16.24-.24.11.14.08.3.02.45-.53,1.32-.39,2.65,0,3.96.36,1.21.64,2.44.91,3.67.19.86.48,1.69.82,2.51.69,1.68,1.81,3.12,2.69,4.7.78,1.41,1.76,2.75,1.91,4.54-.58-.49-.77-1.08-.93-1.67-.18-.66-.48-1.26-.82-1.83-.73-1.23-1.53-2.41-2.23-3.65-1.34-2.39-2.62-4.8-2.78-7.62-.04-.69-.34-1.32-.65-2.03-.55.79-.85,1.59-1.44,2.2-1.17,1.21-2.24,2.5-3.27,3.83-.86,1.11-1.53,2.29-1.67,3.74-.11,1.09-.25,2.18-.51,3.24-.28,1.13-.2,2.31-.54,3.42-.21-.19-.4-.14-.6.06-.32.31-.39.83-.91,1.1,0-.63.15-1.17.43-1.62.85-1.38,1.05-2.9,1.06-4.47.02-2.03.65-3.87,1.71-5.58.73-1.18,1.52-2.31,2.43-3.35.4-.46.58-1.12,1.26-1.39.03.34-.4.55-.26.85,1.31-1.42,2.42-2.97,3.14-4.79Z"/>
        <path class="cls-12" d="M224.28,1082.73c-.08.29.1.49.29.8.15-.43-.05-.63-.29-.8Z"/>
        <polygon class="cls-12" points="227.14 1084.6 227.1 1084.58 227.1 1084.6 227.14 1084.6"/>
        <polygon class="cls-12" points="224.28 1082.73 224.29 1082.7 224.25 1082.7 224.28 1082.73"/>
        <polygon class="cls-12" points="217.33 1050.57 217.33 1050.57 217.33 1050.57 217.33 1050.57"/>
        <polygon class="cls-12" points="217.34 1050.57 217.33 1050.53 217.33 1050.57 217.34 1050.57"/>
        <polygon class="cls-12" points="217.32 1050.56 217.32 1050.58 217.33 1050.57 217.32 1050.56"/>
        <polygon class="cls-12" points="217.41 1048.21 217.42 1048.23 217.43 1048.2 217.41 1048.21"/>
        <path class="cls-12" d="M217.32,1050.58c-.27.22-.31.5-.24.81.24-.22.17-.54.24-.81Z"/>
        <polygon class="cls-12" points="217.05 1051.43 217.08 1051.48 217.09 1051.43 217.05 1051.43"/>
        <polygon class="cls-12" points="217.28 1050.52 217.32 1050.56 217.33 1050.53 217.28 1050.52"/>
        <polygon class="cls-12" points="217.05 1051.43 217.09 1051.43 217.08 1051.4 217.05 1051.43"/>
        <path class="cls-12" d="M217.08,1051.48c-.04.1-.03.2.03.29.04-.1.04-.2-.03-.29Z"/>
        <polygon class="cls-12" points="217.36 1047.25 217.37 1047.26 217.39 1047.24 217.4 1047.24 217.41 1047.2 217.4 1047.24 217.39 1047.23 217.41 1047.2 217.42 1047.1 217.4 1047.11 217.31 1047.12 217.34 1047.22 217.36 1047.25"/>
        <polygon class="cls-12" points="217.11 1051.77 217.1 1051.82 217.14 1051.82 217.11 1051.77"/>
        <polygon class="cls-12" points="217.1 1051.82 217.11 1051.88 217.14 1051.82 217.1 1051.82"/>
      </g>
      <g>
        <polyline class="cls-12" points="221.73 38.14 221.69 38.15 221.73 38.14"/>
        <polygon class="cls-12" points="227.1 33.83 227.1 33.83 227.08 33.79 227.14 33.83 227.1 33.83 227.1 33.83"/>
        <polygon class="cls-12" points="227.05 33.74 227.08 33.79 227 33.73 227.05 33.74"/>
        <path class="cls-12" d="M217.31,69.06l-.03.05h0c.08.11.15.22.22.33h0c0,.17,0,.32,0,.48.18.13.17.23-.05.29v.04s-.03-.03-.03-.03h.02s.03-.33.03-.33h0c-.09-.16-.08-.31.02-.44-.08-.12-.16-.25-.24-.37l.05-.03Z"/>
        <path class="cls-12" d="M201.68,34.54c.45.6.9,1.19,1.35,1.78h0c-.74-.77-1.48-1.55-2.31-2.42.51.04.73.33.96.63Z"/>
        <polygon class="cls-12" points="205.44 19.7 205.41 19.71 205.41 19.69 205.44 19.7"/>
        <path class="cls-12" d="M205.33,19.56l.09.04c.13.09-.03-.02-.01.09l-.08-.12Z"/>
        <polygon class="cls-12" points="227.14 33.83 227.14 33.83 227.14 33.83 227.14 33.83"/>
        <polygon class="cls-12" points="221.69 38.15 221.74 38.1 221.73 38.14 221.69 38.15"/>
        <polygon class="cls-12" points="224.29 35.73 224.25 35.77 224.25 35.73 224.29 35.73"/>
        <path class="cls-12" d="M215.76,67c.53,3.72.46,7.48.56,11.23.2-.06.39-.12.58-.19.02-2.6-.06-5.2-.19-7.8-.13-2.74-.54-5.44-1.8-7.94-.39-.78-.65-1.63-1.09-2.72.82.83,1.15,1.6,1.52,2.35.73,1.48,1.26,3.05,1.77,4.61.17-.53-.07-1.01-.19-1.5-.07-.29-.3-.57-.09-.89.84,1.2,1.24,2.57,1.21,4-.05,3.16.33,6.34-.31,9.48.13-.08.27-.14.4-.23.09-.07.16-.15.25-.22.38-1.68.48-3.37.38-5.09-.04-.76-.09-1.52-.03-2.27.16-1.98-.23-3.85-1.06-5.64-.23-.5-.37-1.03-.6-1.53-.6-1.26-.55-2.53-.15-3.82.32-1.05.61-2.1.81-3.18.38-1.97,1.16-3.76,2.19-5.47.84-1.4,1.86-2.71,2.35-4.3.11-.34.35-.59.63-.76.71-.44,1.34-.98,2.18-1.23,1.01-.3,1.88-.93,2.74-1.53,1.08-.76,1.78-1.76,1.85-3.14.05-.98.34-1.89.79-2.77.23-.45.48-.93.52-1.41.13-1.86,1.19-3.18,2.36-4.47.14-.16.29-.31.41-.48.41-.59.72-1.24.8-1.97.05-.52.03-1.09-.56-1.27-.64-.2-.72.41-.9.81-.84,1.79-2.2,2.95-4.15,3.36-.74.16-1.49.27-2.24.35-2.19.25-3.64,1.78-5.28,2.99l-.13.21c-1.01,1.4-1.24,3.02-1.2,4.68.04,1.56.44,3.08.89,4.57.21.7.12,1.31-.27,1.91-.77,1.2-1.55,2.4-2.28,3.63-1.53,2.58-2.9,5.22-3.06,8.31-.02.31.02.68-.37.94-.31-.44-.59-.9-.92-1.33-1.01-1.29-2.04-2.56-3.05-3.85-.82-1.04-1.44-2.14-1.59-3.5-.14-1.29-.4-2.58-.7-3.85-.28-1.18-.33-2.35-.03-3.5.46-1.76.85-3.51.83-5.34,0-.49.19-.99.33-1.47.51-1.8.76-3.64.51-5.49-.19-1.45-.05-2.85.29-4.23.32-1.28.16-2.5-.26-3.72-.14-.4-.33-.78-.42-1.19-.4-1.81-1.58-2.81-3.29-3.28-.58-.16-1.1-.4-1.58-.75-.3-.22-.64-.42-1-.53-.66-.21-1.09.02-1.19.71-.18,1.23-.67,2.33-1.2,3.43-.49,1.02-.43,2.02.3,2.96.51.66.95,1.37,1.34,2.12.68,1.3,1.77,2.11,3.18,2.5.36.1.74.18,1.09.33.94.41,1.42,1.16,1.34,2.17-.12,1.59-.13,3.19-.6,4.74-.2.64-.24,1.32-.28,1.99-.1,1.57-.53,3.06-1.02,4.75-.61-1.06-1.07-1.95-1.61-2.8-.74-1.16-1.34-2.31-1.71-3.7-.57-2.13-1.26-4.26-2.41-6.2-.46-.77-1.03-1.32-1.85-1.62-.91-.33-1.82-.65-2.75-.92-1.47-.42-1.9,0-1.52,1.46.16.61.45,1.2.35,1.84-.21,1.29.08,2.47.52,3.69.37,1.02.94,1.8,1.85,2.29,1.25.67,2.47,1.46,3.9,1.73.76.14,1.27.59,1.73,1.17,1.1,1.38,2.05,2.8,2.65,4.52.51,1.46.91,2.87.91,4.4,0,2.03.59,3.89,1.6,5.63.93,1.61,2.08,3.05,3.23,4.49,2.04,2.55,3.3,5.47,3.75,8.68ZM202.1,32.76c-.43-.17-.42-.61-.62-.91-.52-.81-1.14-1.08-2-.64-.47.24-.65.16-.89-.24-.3-.51-.62-1-1.17-1.39.08.74.62,1.18.91,1.74.36.69.3,1.05-.36,1.41-.15.08-.31.14-.47.18-1.01.27-1.31.08-1.38-.96-.04-.63.01-1.26.02-1.89,0-.52-.22-.98-.36-1.46-.22-.76.06-1.11.79-.91,1.05.29,2.07.66,3.1,1.02.23.08.45.24.64.4.5.42,1.67,2.84,1.79,3.65ZM198.66,34.51c1.26,1.59,3.3,1.62,4.63,2.82-.37.42-.71.27-1,.17-1.07-.38-2.13-.77-3.18-1.19-.83-.34-1.55-.86-2.05-1.61-.49-.73-.34-1.1.53-1.21.79-.11,1.23-.67,1.73-1.17.96-.98,1.29-.96,1.93.24.4.75,1.12,1.24,1.51,2,.35.67.7,1.32.7,2.1-.34.1-.36-.15-.43-.32h0c-1.01-.05-1.79-.67-2.66-1.06-.52-.23-.96-.62-1.71-.75ZM204.02,38.14c.36.62.94,1.13.99,1.9-.57-.4-1.01-.93-1.47-1.44-.14-.15-.28-.35-.06-.53.18-.15.42-.14.54.06ZM205.36,40.57c-.14.09-.28-.11-.34-.27l.03-.21.19.1c.11.11.29.27.12.38ZM206.09,41.74l-.08-.05.03-.07.08.05-.03.07ZM205.2,22.11c.4.01.72-.11,1.06-.3,1.26-.7,2.38-.27,2.88,1.06.13.35.27.71.38,1.07.13.46.17.86-.33,1.21-.47.33-.43,1.08-1.04,1.46-.41-.39-.55-.84-.76-1.25-.18-.36-.23-.81-.68-1.1-.56.83.4,1.41.22,2.3-.87-.66-1.44-1.52-2.35-2.27.65,1.58,1.8,2.47,3.12,3.37-.75.31-1.22-.02-1.68-.21-1.57-.66-2.63-2.22-2.58-3.71.03-.96.77-1.66,1.76-1.62ZM210.33,23.98c.03.1,0,.2-.05.29-.04-.11-.03-.2.05-.29ZM210.11,23.43c.16.12.21.28.21.47-.16-.12-.3-.24-.21-.47ZM203.23,19.64c.53,1.52.1,2.83-.64,4.1-.99-1.28-.85-2.27.64-4.1ZM210.1,23.35c-.54-1.34-1.62-2.15-2.79-2.88-.58-.37-1.07-.93-1.87-.78h-.03c.53.24,1.07.45,1.43,1.07-.77.45-1.38,1.19-2.38.54-.16-.11-.43-.09-.42-.35.06-.99-.33-1.9-.46-2.85-.04-.29-.1-.64.21-.8.28-.14.58.03.81.22.74.59,1.59.9,2.49,1.15,1.17.32,2.03,1.04,2.31,2.26.19.82.87,1.51.68,2.43ZM209.97,27.19c-.26-.75-.18-1.46.28-2.11.24.75.04,1.44-.28,2.11ZM207.81,43.34c-.15-.57-.15-1.15,0-1.71.45-1.67.64-3.37.87-5.08.25-1.79.57-3.56.62-5.37.03-1,.09-2-.5-2.91-.36-.56-.12-1.09.2-1.63.71.77.74,1.63.81,2.55.17,2.42.04,4.77-.69,7.1-.14.43-.19.92-.16,1.37.12,1.89-.57,3.64-.94,5.44-.02.09-.12.16-.21.24ZM233.47,28.61c.06-.08.12-.16.17-.24.1.21-.06.2-.17.24ZM222.85,44.33c.38-1.56,1.05-2.66,2.29-3.37.69-.4,1.44-.72,2-1.3.37-.39.81-.75.91-1.47-.82.58-1.55,1.1-2.28,1.62-.3-.38-.04-.54.08-.74.48-.75.88-1.53,1.12-2.39.29-1.04.77-1.94,1.65-2.6.23-.17.39-.42.77-.84-1,.57-1.61,1.18-2.29,1.92-.21-.53-.04-.92,0-1.31-.46.21-.56.67-.67,1.09-.12.44-.21.91-.2,1.36,0,1.4-.53,2.49-1.61,3.38-.44.36-.78.85-1.29,1.42-.08-1.26.14-2.3.4-3.34.17-.67.55-1.27.52-1.99-.99.95-1.28,2.19-1.4,3.48-.09,1.05-.26,2.08-.62,3.07-.14.39-.2.82-.69,1.16-.4-.86-.43-1.77-.58-2.63-.25-1.47-.15-2.93.3-4.35.27-.84.65-1.61,1.62-2.09,0,.7-.26,1.21-.48,1.73-.28.63-.65,1.24-.66,1.96.86-.72,1.29-1.72,1.53-2.75.5-2.18,1.94-3.08,4.01-3.28,1.39-.13,2.69-.51,3.94-1.15,1.02-.52,1.6-1.42,2.24-2.28.17.17.11.35.02.54-.22.47-.57.82-.92,1.19-1.09,1.18-2.07,2.43-2.19,4.14-.03.37-.17.74-.34,1.07-.61,1.17-.95,2.41-1.07,3.72-.1,1.07-.72,1.87-1.59,2.47-.83.58-1.67,1.13-2.62,1.5-.62.24-1.19.55-1.89,1.05ZM216.5,63.44c.21.17.38.36.32.67-.23-.16-.42-.35-.32-.67ZM216.3,62.88c.18.12.27.28.18.5-.15-.13-.32-.26-.18-.5ZM212.9,57.81c-.14.3.29.51.26.85-.68-.27-.86-.93-1.26-1.39-.91-1.04-1.7-2.18-2.43-3.35-1.06-1.71-1.69-3.55-1.71-5.58-.02-1.57-.21-3.09-1.06-4.47-.28-.45-.42-.99-.43-1.62.52.26.59.78.91,1.1.21.2.39.25.6.06.34,1.11.27,2.29.54,3.42.26,1.06.4,2.15.51,3.24.14,1.45.81,2.63,1.67,3.74,1.03,1.32,2.1,2.62,3.27,3.83.59.61.89,1.41,1.44,2.2.31-.71.61-1.34.65-2.03.17-2.82,1.45-5.24,2.78-7.62.7-1.24,1.5-2.43,2.23-3.65.34-.58.64-1.18.82-1.83.16-.59.35-1.19.93-1.67-.14,1.8-1.13,3.14-1.91,4.54-.88,1.58-1.99,3.01-2.69,4.7-.34.82-.63,1.65-.82,2.51-.27,1.23-.55,2.46-.91,3.67-.39,1.31-.53,2.64,0,3.96.06.15.09.3-.02.45-.09-.08-.2-.14-.24-.24-.72-1.81-1.83-3.37-3.14-4.79Z"/>
        <path class="cls-12" d="M224.28,35.71c-.08-.29.1-.49.29-.8.15.43-.05.63-.29.8Z"/>
        <polygon class="cls-12" points="227.14 33.83 227.1 33.86 227.1 33.83 227.14 33.83"/>
        <polygon class="cls-12" points="224.28 35.71 224.29 35.73 224.25 35.73 224.28 35.71"/>
        <polygon class="cls-12" points="217.33 67.86 217.33 67.87 217.33 67.87 217.33 67.86"/>
        <polygon class="cls-12" points="217.34 67.87 217.33 67.91 217.33 67.87 217.34 67.87"/>
        <polygon class="cls-12" points="217.32 67.87 217.32 67.85 217.33 67.87 217.32 67.87"/>
        <polygon class="cls-12" points="217.41 70.22 217.42 70.21 217.43 70.23 217.41 70.22"/>
        <path class="cls-12" d="M217.32,67.85c-.27-.22-.31-.5-.24-.81.24.22.17.54.24.81Z"/>
        <polygon class="cls-12" points="217.05 67 217.08 66.95 217.09 67 217.05 67"/>
        <polygon class="cls-12" points="217.28 67.91 217.32 67.87 217.33 67.91 217.28 67.91"/>
        <polygon class="cls-12" points="217.05 67 217.09 67 217.08 67.04 217.05 67"/>
        <path class="cls-12" d="M217.08,66.95c-.04-.1-.03-.2.03-.29.04.1.04.2-.03.29Z"/>
        <polygon class="cls-12" points="217.36 71.19 217.37 71.17 217.39 71.2 217.4 71.2 217.41 71.24 217.4 71.2 217.39 71.21 217.41 71.24 217.42 71.33 217.4 71.33 217.31 71.31 217.34 71.21 217.36 71.19"/>
        <polygon class="cls-12" points="217.11 66.67 217.1 66.62 217.14 66.62 217.11 66.67"/>
        <polygon class="cls-12" points="217.1 66.62 217.11 66.55 217.14 66.62 217.1 66.62"/>
      </g>
    </g>
    <g>
      <circle class="cls-5" cx="218.14" cy="875.97" r="8.7" transform="translate(-287.36 128.06) rotate(-20.07)"/>
      <line class="cls-5" x1="274.81" y1="875.97" x2="219.61" y2="875.97"/>
      <circle class="cls-5" cx="278.12" cy="875.97" r="2.87"/>
    </g>
    <g>
      <circle class="cls-5" cx="218.3" cy="717.6" r="8.7" transform="translate(-530.22 765.73) rotate(-76.76)"/>
      <line class="cls-5" x1="161.63" y1="717.6" x2="216.84" y2="717.6"/>
      <path class="cls-5" d="M158.32,714.72c1.59,0,2.87,1.29,2.87,2.87s-1.29,2.87-2.87,2.87-2.87-1.29-2.87-2.87,1.29-2.87,2.87-2.87Z"/>
    </g>
    <g>
      <circle class="cls-5" cx="218.14" cy="559.22" r="8.7" transform="translate(-229.13 158.9) rotate(-26.86)"/>
      <line class="cls-5" x1="274.81" y1="559.22" x2="219.61" y2="559.22"/>
      <circle class="cls-5" cx="278.12" cy="559.22" r="2.87"/>
    </g>
    <g>
      <circle class="cls-5" cx="218.3" cy="400.84" r="8.7" transform="translate(-219.5 271.76) rotate(-45)"/>
      <line class="cls-5" x1="161.63" y1="400.84" x2="216.84" y2="400.84"/>
      <path class="cls-5" d="M158.32,397.97c1.59,0,2.87,1.29,2.87,2.87s-1.29,2.87-2.87,2.87-2.87-1.29-2.87-2.87,1.29-2.87,2.87-2.87Z"/>
    </g>
    <g>
      <circle class="cls-5" cx="218.3" cy="1034.35" r="8.7" transform="translate(-380.82 163.38) rotate(-22.61)"/>
      <line class="cls-5" x1="161.63" y1="1034.35" x2="216.84" y2="1034.35"/>
      <circle class="cls-5" cx="158.32" cy="1034.35" r="2.87"/>
    </g>
    <g>
      <line class="cls-4" x1="161.63" y1="84.08" x2="216.84" y2="84.08"/>
      <circle class="cls-4" cx="218.3" cy="84.08" r="8.7" transform="translate(-15.55 90.37) rotate(-22.61)"/>
      <circle class="cls-4" cx="158.32" cy="84.08" r="2.87"/>
    </g>
    <g>
      <circle class="cls-5" cx="218.14" cy="242.46" r="8.7" transform="translate(-83.56 118.58) rotate(-25.7)"/>
      <line class="cls-5" x1="274.81" y1="242.46" x2="219.61" y2="242.46"/>
      <circle class="cls-5" cx="278.12" cy="242.46" r="2.87"/>
    </g>
  </g>
  <text class="cls-9" transform="translate(33.16 120.45)"><tspan x="0" y="0">Ceremonia</tspan></text>
  <text class="cls-9" transform="translate(280.3 282.86)"><tspan x="0" y="0">R</tspan><tspan class="cls-2" x="22.07" y="0">e</tspan><tspan x="29.19" y="0">cep</tspan><tspan class="cls-3" x="50.49" y="0">ci</tspan><tspan x="63.07" y="0">ón</tspan></text>
  <text class="cls-9" transform="translate(53.82 440.16)"><tspan x="0" y="0">Fotos</tspan></text>
  <text class="cls-9" transform="translate(299.4 592.18)"><tspan x="0" y="0">Ce</tspan><tspan class="cls-2" x="25.47" y="0">n</tspan><tspan x="34.17" y="0">a</tspan></text>
  <text class="cls-10" transform="translate(281.03 914.07)"><tspan x="0" y="0">B</tspan><tspan class="cls-1" x="23.46" y="0">r</tspan><tspan x="32.88" y="0">ind</tspan><tspan class="cls-1" x="54.99" y="0">i</tspan><tspan x="60.91" y="0">s</tspan></text>
  <text class="cls-9" transform="translate(53.06 742.04)"><tspan x="0" y="0">Ba</tspan><tspan class="cls-7" x="32.37" y="0">i</tspan><tspan x="38.29" y="0">le</tspan></text>
  <text class="cls-9" transform="translate(49.74 1070.77)"><tspan x="0" y="0">Fiesta</tspan></text>
  <g>
    <path class="cls-12" d="M87.52,68.18c-2.34,8.93-10.48,15.53-20.13,15.53-11.48,0-20.81-9.34-20.81-20.81s9.34-20.81,20.81-20.81,20.02,8.58,20.76,19.39c.44,0,.88-.02,1.32-.02-.75-11.53-10.36-20.69-22.08-20.69s-22.14,9.93-22.14,22.14,9.93,22.14,22.14,22.14c10.52,0,19.34-7.38,21.58-17.23-.41.22-.89.35-1.45.37Z"/>
    <path class="cls-12" d="M81.17,67.08c-1.8,5.91-7.29,10.22-13.78,10.22-7.94,0-14.4-6.46-14.4-14.4s6.46-14.4,14.4-14.4c6.99,0,12.83,5.01,14.13,11.63.05.01.1.03.15.05.42.16.85.31,1.28.47-1.1-7.6-7.66-13.46-15.56-13.46-8.67,0-15.72,7.05-15.72,15.72s7.05,15.72,15.72,15.72c7.11,0,13.13-4.75,15.07-11.24-.44-.07-.86-.17-1.29-.31Z"/>
    <path class="cls-12" d="M87.94,24.48c-10.28,0-18.94,7.04-21.42,16.55.1,0,.2,0,.3.02.34.06.68.11,1.02.17,2.38-8.87,10.49-15.42,20.1-15.42,11.48,0,20.81,9.34,20.81,20.81s-9.34,20.81-20.81,20.81-20.08-8.63-20.77-19.49c-.44-.01-.88-.02-1.33-.01.68,11.6,10.33,20.82,22.09,20.82s22.14-9.93,22.14-22.14-9.93-22.14-22.14-22.14Z"/>
    <path class="cls-12" d="M87.94,30.89c-7.1,0-13.12,4.74-15.06,11.22.43.09.86.2,1.28.31,1.8-5.9,7.29-10.21,13.78-10.21,7.94,0,14.4,6.46,14.4,14.4s-6.46,14.4-14.4,14.4c-7.26,0-13.28-5.41-14.26-12.4-.38.11-.78.14-1.19.13-.04,0-.08,0-.13-.01,1.04,7.67,7.62,13.61,15.58,13.61,8.67,0,15.72-7.05,15.72-15.72s-7.05-15.72-15.72-15.72Z"/>
  </g>
  <g>
    <path class="cls-12" d="M102.42,357.88h-19.07v-6.42h2.43v-5.69h-12.41v5.69h2.43v6.42h-7.09v-4h-10.21v4h-1.77c-2.47,0-4.48,2.01-4.48,4.48v27.42c0,2.47,2.01,4.48,4.48,4.48h45.69c2.47,0,4.48-2.01,4.48-4.48v-27.42c0-2.47-2.01-4.48-4.48-4.48ZM60.23,355.61h6.74v2.21h-6.74v-2.21ZM75.1,347.5h8.94v2.21h-8.94v-2.21ZM77.53,351.47h4.08v6.35h-4.08v-6.35ZM53.99,382.87h11.38v-1.74h-11.38v-18.78c0-1.51,1.23-2.74,2.74-2.74h45.69c1.51,0,2.74,1.23,2.74,2.74v18.78h-11.63v1.74h11.63v6.9c0,1.51-1.23,2.74-2.74,2.74h-45.69c-1.51,0-2.74-1.23-2.74-2.74v-6.9Z"/>
    <path class="cls-12" d="M79.57,387.97c6.57,0,11.91-5.34,11.91-11.91s-5.34-11.91-11.91-11.91-11.91,5.34-11.91,11.91,5.34,11.91,11.91,11.91ZM69.4,376.06c0-5.61,4.56-10.17,10.17-10.17s10.17,4.56,10.17,10.17-4.56,10.17-10.17,10.17-10.17-4.56-10.17-10.17Z"/>
    <path class="cls-12" d="M101.48,361.78h-6.93v6.93h6.93v-6.93ZM96.29,366.98v-3.46h3.46v3.46h-3.46Z"/>
  </g>
  <path class="cls-12" d="M345.06,855.92v-12.1h2.08s.11,0,.11,0l.05-3.81c0-3.02-2.46-5.47-5.48-5.47-.58,0-1.15.1-1.69.28v-8.47h1.63s.11,0,.11,0l.04-3.13c0-2.44-2.02-4.43-4.5-4.43-1.29,0-2.52.55-3.38,1.51-.86-.96-2.08-1.51-3.38-1.51s-2.52.55-3.38,1.51c-.78-.87-1.86-1.38-3.02-1.47,1.19-1.14,2.32-2.59,2.81-4.26.16-.46.25-.94.25-1.43,0-2.35-1.91-4.27-4.27-4.27-.98,0-1.93.34-2.68.95-.76-.61-1.71-.95-2.68-.95-2.35,0-4.27,1.91-4.27,4.27,0,.48.08.96.25,1.42.49,1.69,1.64,3.15,2.84,4.3-1.05.15-2.02.64-2.74,1.44-.86-.96-2.08-1.51-3.38-1.51s-2.52.55-3.38,1.51c-.86-.96-2.08-1.51-3.38-1.51-2.48,0-4.5,1.99-4.5,4.43v3.05h1.78v8.54c-.54-.18-1.11-.28-1.69-.28-3.02,0-5.48,2.46-5.48,5.47v3.71h2.24v12.19c-2.93.4-5.19,2.91-5.19,5.95v4.04l59.28.11h.11l.05-4.15c0-3.04-2.26-5.55-5.19-5.95ZM320.37,819.92c-1.36-.84-4.45-3-5.25-5.8l-.02-.04c-.11-.31-.17-.62-.17-.93,0-1.52,1.23-2.75,2.75-2.75.81,0,1.58.36,2.1.98l.58.69.58-.69c.52-.62,1.29-.98,2.1-.98,1.52,0,2.75,1.23,2.75,2.75,0,.31-.06.63-.17.94v.05c-.82,2.8-3.91,4.96-5.26,5.79ZM319.85,821.99l.68,1.42.68-1.42c.49-1.02,1.55-1.67,2.69-1.67s2.2.66,2.69,1.67l.68,1.42.68-1.42c.49-1.02,1.55-1.67,2.69-1.67s2.2.66,2.69,1.67l.68,1.42.68-1.42c.49-1.02,1.55-1.67,2.69-1.67,1.64,0,2.98,1.3,2.98,2.9l-.02,1.62-39.71-.07v-1.54c0-1.6,1.34-2.91,2.98-2.91,1.15,0,2.2.66,2.69,1.67l.68,1.42.68-1.42c.49-1.02,1.55-1.67,2.69-1.67s2.2.66,2.69,1.67l.68,1.42.68-1.42c.49-1.02,1.55-1.67,2.69-1.67s2.2.66,2.69,1.67ZM338.62,826.39v9.22c-.39.28-.74.61-1.05.98-1.04-1.28-2.62-2.05-4.26-2.05s-3.22.76-4.26,2.05c-1.04-1.28-2.62-2.05-4.26-2.05s-3.22.76-4.26,2.05c-1.04-1.28-2.62-2.05-4.26-2.05s-3.22.76-4.26,2.05c-1.04-1.28-2.62-2.05-4.26-2.05s-3.22.76-4.26,2.05c-.31-.38-.66-.7-1.05-.98v-9.22h36.18ZM304.18,838.33c.65-1.38,2.06-2.27,3.57-2.27s2.92.89,3.57,2.27l.69,1.45.69-1.45c.65-1.38,2.06-2.27,3.57-2.27s2.92.89,3.57,2.27l.69,1.45.69-1.45c.65-1.38,2.06-2.27,3.57-2.27s2.92.89,3.57,2.27l.69,1.45.69-1.45c.65-1.38,2.05-2.27,3.57-2.27s2.92.89,3.57,2.27l.69,1.45.69-1.45c.65-1.38,2.05-2.27,3.57-2.27,2.18,0,3.96,1.77,3.96,3.95l-.03,2.3-50.48-.09v-2.19c0-2.18,1.78-3.96,3.96-3.96,1.52,0,2.92.89,3.57,2.27l.69,1.45.69-1.45ZM343.54,855.9c-1.58.19-3.05,1.01-4.04,2.29-1.14-1.46-2.9-2.33-4.74-2.33s-3.6.87-4.74,2.33c-1.14-1.46-2.9-2.33-4.74-2.33s-3.6.87-4.74,2.33c-1.14-1.46-2.9-2.33-4.74-2.33s-3.6.87-4.74,2.33c-1.14-1.46-2.9-2.33-4.74-2.33s-3.6.87-4.74,2.33c-.99-1.27-2.46-2.1-4.04-2.29v-12.04h46.02v12.04ZM300.87,859.95l.69,1.45.69-1.45c.74-1.56,2.33-2.57,4.06-2.57s3.32,1.01,4.06,2.57l.69,1.45.69-1.45c.74-1.56,2.33-2.57,4.06-2.57s3.32,1.01,4.06,2.57l.69,1.45.69-1.45c.74-1.56,2.33-2.57,4.06-2.57s3.32,1.01,4.06,2.57l.69,1.45.69-1.45c.74-1.56,2.33-2.57,4.06-2.57s3.32,1.01,4.06,2.57l.69,1.45.69-1.45c.74-1.56,2.33-2.57,4.06-2.57,2.48,0,4.49,2.01,4.49,4.48l-.03,2.64-56.37-.11v-2.53c0-2.48,2.01-4.49,4.49-4.49,1.72,0,3.32,1.01,4.06,2.57Z"/>
  <path class="cls-12" d="M106.22,691.09c-.28-7.75-4.58-12.35-8.13-14.84-3.81-2.67-7.53-3.53-7.68-3.57l-.2-.05-.2.06c-.16.05-3.85,1.18-8.4.38-6.17-1.08-10.83-5.05-13.84-11.8-3.25-7.28-6.47-12.45-9.57-15.37-2.61-2.45-4.09-2.34-4.13-2.33h-.34s-.23.27-.23.27c-.07.08-7.11,8.47-3.88,18.55,2.45,7.64,3.69,15.58,3.69,23.59v5.89h6.58l1.32-16.32c.41.1.99.25,1.69.47,4.19,1.31,7.77,4.13,10.09,7.95,2.04,3.35,5.54,7.45,10.68,7.91h22.58s-.03-.79-.03-.79ZM54.84,690.35v-4.36c0-8.17-1.27-16.26-3.77-24.06-2.63-8.21,2.17-15.24,3.31-16.74.56.18,1.89.8,3.8,2.92,2.66,2.94,5.41,7.58,8.18,13.79,4.02,9.02,10.36,11.87,14.98,12.68,4.43.78,8.13-.15,8.92-.37,1.53.41,13.45,3.97,14.39,16.13h-20.89c-4.47-.42-7.61-4.13-9.46-7.18-2.51-4.13-6.4-7.19-10.94-8.61-1.61-.5-2.67-.68-2.71-.69l-.82-.14-1.35,16.62h-3.63Z"/>
  <g>
    <path class="cls-12" d="M71.33,992.99c-.75,0-1.47-.24-2.08-.7-.74-.56-1.22-1.37-1.35-2.28-.13-.92.1-1.83.66-2.57.56-.74,1.37-1.22,2.29-1.35l.63-.09-.09-.63c-.13-.92.11-1.83.66-2.57.56-.74,1.37-1.22,2.28-1.35.92-.14,1.83.1,2.57.66.74.55,1.22,1.37,1.35,2.28l.97,6.82c.05.37-.2.71-.57.76l-6.82.97c-.17.02-.33.04-.49.04ZM74.82,982.77c-.1,0-.2,0-.3.02h0c-1.16.16-1.96,1.24-1.8,2.39l.18,1.3c.05.37-.2.71-.57.76l-1.3.18c-.56.08-1.06.37-1.39.83-.34.45-.48,1.01-.4,1.57.16,1.16,1.25,1.96,2.39,1.8l6.15-.87-.87-6.16c-.15-1.06-1.06-1.82-2.09-1.82ZM74.43,982.12h.02-.02Z"/>
    <path class="cls-12" d="M60.65,983.07c-.57,0-1.12-.18-1.58-.53-.57-.43-.93-1.04-1.03-1.74-.1-.7.08-1.39.5-1.96.42-.56,1.04-.93,1.74-1.03l.25-.04-.04-.25c-.1-.7.08-1.39.5-1.96.42-.56,1.04-.93,1.74-1.03h0c1.41-.21,2.78.8,2.99,2.24l.68,4.81c.05.37-.2.71-.57.76l-4.81.69c-.13.02-.25.03-.38.03ZM63.11,975.87c-.06,0-.12,0-.18.01h0c-.34.05-.64.23-.85.5-.21.28-.29.62-.25.96l.13.92c.05.37-.2.71-.57.76l-.91.13c-.34.05-.64.23-.85.5-.21.28-.29.62-.25.96.1.71.75,1.2,1.46,1.1l4.14-.59-.59-4.14c-.09-.64-.65-1.11-1.28-1.11ZM62.83,975.21h.02-.02Z"/>
    <path class="cls-12" d="M104.66,1020.09c-.4,0-.8-.07-1.2-.2l-29.3-10.21c-1.18-.41-2.05-1.39-2.33-2.61-.28-1.22.09-2.47.98-3.35h0l18.38-18.09c.86-.85,2.09-1.21,3.28-.95s2.16,1.09,2.6,2.22l10.92,28.3c.51,1.32.22,2.78-.77,3.8-.69.72-1.62,1.1-2.57,1.1ZM73.77,1004.68c-.56.55-.79,1.33-.61,2.1.17.76.71,1.37,1.45,1.63l29.3,10.21c.85.3,1.73.09,2.35-.56.63-.65.81-1.53.48-2.37l-10.92-28.3c-.28-.72-.87-1.22-1.62-1.39-.76-.16-1.5.05-2.05.6l-18.38,18.09Z"/>
    <path class="cls-12" d="M79.46,1010.49c-.19,0-.37-.08-.51-.23-.25-.28-.22-.71.06-.95,1.4-1.23,2.81-1.03,4.06-.85,1.14.16,2.05.29,2.98-.53.94-.82.93-1.73.92-2.89,0-1.26-.02-2.68,1.38-3.91,1.4-1.23,2.81-1.03,4.06-.86,1.14.16,2.05.28,2.99-.54.94-.82.93-1.74.92-2.89,0-1.26-.02-2.69,1.38-3.91.28-.25.71-.22.95.06.25.28.22.71-.06.95-.94.82-.93,1.73-.92,2.89,0,1.26.02,2.69-1.38,3.92-1.4,1.23-2.82,1.03-4.06.86-1.15-.16-2.05-.28-2.99.54-.94.82-.93,1.73-.92,2.89,0,1.26.02,2.68-1.38,3.91-1.4,1.23-2.82,1.03-4.06.85-1.14-.16-2.04-.29-2.98.53-.13.11-.29.17-.44.17Z"/>
    <path class="cls-12" d="M73.46,1008.8c-.19,0-.37-.08-.5-.23-.25-.28-.22-.7.06-.95,1.62-1.44,3.15-1.38,4.5-1.34,1.26.04,2.34.08,3.56-1,1.22-1.08,1.31-2.16,1.42-3.42.12-1.35.25-2.87,1.87-4.31,1.62-1.44,3.16-1.38,4.5-1.35,1.26.04,2.34.08,3.57-1.01,1.22-1.08,1.31-2.17,1.42-3.42.12-1.35.25-2.87,1.87-4.31.28-.25.7-.22.95.06.25.28.22.7-.06.95-1.22,1.08-1.31,2.17-1.42,3.42-.12,1.35-.25,2.87-1.87,4.31-1.62,1.44-3.15,1.39-4.5,1.35-1.26-.05-2.34-.08-3.57,1.01-1.22,1.08-1.31,2.16-1.42,3.42-.12,1.35-.25,2.87-1.87,4.31-1.62,1.44-3.15,1.38-4.5,1.34-1.26-.05-2.34-.08-3.56,1-.13.11-.29.17-.45.17Z"/>
    <path class="cls-12" d="M82.69,984.57h-.02c-.37-.01-.67-.32-.66-.69.05-1.55,1.23-2.28,2.19-2.87.94-.58,1.52-.98,1.55-1.76.02-.78-.53-1.21-1.44-1.85-.92-.64-2.06-1.45-2.02-2.99.05-1.55,1.23-2.28,2.19-2.87.94-.58,1.52-.98,1.55-1.77s-.53-1.22-1.44-1.85c-.92-.64-2.06-1.45-2.01-2.99.01-.37.37-.62.69-.66.37.01.67.32.66.69-.02.78.53,1.21,1.44,1.85.92.64,2.06,1.45,2.02,3-.05,1.55-1.23,2.29-2.19,2.88-.94.58-1.52.98-1.55,1.77-.02.78.53,1.21,1.44,1.85.92.64,2.06,1.45,2.02,2.99-.05,1.55-1.23,2.28-2.19,2.87-.94.58-1.52.98-1.55,1.76-.01.37-.31.66-.67.66Z"/>
    <path class="cls-12" d="M57.87,994.19c-.1,0-.2,0-.3-.03-1.23-.21-1.56-1.5-1.83-2.54-.18-.7-.38-1.49-.75-1.55-.32-.04-.82.61-1.22,1.21-.6.89-1.34,1.98-2.57,1.79-1.22-.21-1.56-1.51-1.82-2.54-.18-.7-.38-1.49-.74-1.55-.37-.06-.61-.41-.55-.78.06-.37.4-.63.78-.55,1.22.21,1.56,1.5,1.82,2.54.18.7.38,1.49.74,1.55.34.04.82-.61,1.22-1.21.6-.89,1.33-2.02,2.57-1.79,1.23.21,1.56,1.5,1.83,2.54.18.7.38,1.49.75,1.55.35.04.82-.61,1.22-1.21.6-.89,1.34-2.02,2.57-1.79.37.06.61.41.55.78-.06.37-.41.62-.78.55-.34-.03-.82.61-1.23,1.21-.55.82-1.22,1.81-2.27,1.81Z"/>
    <path class="cls-12" d="M55.57,1004.21c-1.22,0-2-.95-2.63-1.73-.67-.82-1.1-1.32-1.76-1.22-.36.05-.71-.2-.77-.57-.05-.37.2-.71.57-.77,1.44-.21,2.3.85,3,1.7.67.82,1.1,1.32,1.76,1.22.64-.1.92-.7,1.32-1.68.41-1.02.93-2.29,2.37-2.51,1.43-.22,2.3.85,3.01,1.7.67.82,1.09,1.33,1.76,1.22.64-.1.92-.7,1.32-1.68.42-1.02.93-2.29,2.37-2.51.36-.05.71.2.77.57.05.37-.2.71-.57.77-.64.1-.92.7-1.32,1.68-.42,1.02-.93,2.29-2.37,2.51-1.44.21-2.31-.85-3.01-1.7-.67-.82-1.1-1.33-1.76-1.22-.64.1-.92.7-1.32,1.68-.41,1.02-.93,2.3-2.37,2.51-.13.02-.25.03-.37.03Z"/>
    <path class="cls-12" d="M72.45,974.63c-.54,0-1.05-.15-1.43-.62-.8-.96-.21-2.16.26-3.12.31-.65.67-1.38.43-1.67-.24-.29-1.02-.06-1.72.13-1.03.29-2.32.65-3.12-.31-.8-.95-.21-2.15.26-3.12.31-.65.67-1.38.44-1.66-.24-.29-.2-.71.09-.95.29-.24.71-.2.95.09.8.95.21,2.15-.26,3.12-.31.65-.67,1.38-.44,1.66.24.29,1.02.07,1.72-.13,1.03-.29,2.32-.65,3.11.3.8.96.21,2.16-.25,3.12-.31.65-.67,1.38-.43,1.67.24.28,1.03.06,1.72-.13,1.04-.29,2.32-.65,3.12.31.24.29.2.71-.09.95s-.71.2-.95-.09c-.24-.28-1.02-.06-1.72.13-.53.15-1.12.31-1.68.31Z"/>
    <path class="cls-12" d="M96.53,1017.44c-.18,0-.36-.07-.5-.22-.25-.27-.23-.7.04-.95l8.35-7.68c.28-.25.7-.23.95.04.25.27.23.7-.04.95l-8.35,7.68c-.13.12-.29.18-.46.18Z"/>
  </g>
  <text class="cls-11" transform="translate(22.21 771.21)"><tspan x="0" y="0">Cuando escuches </tspan><tspan x="33.96" y="15.6">música</tspan></text>
  <text class="cls-8" transform="translate(26.18 1103.1)"><tspan x="0" y="0">Toda la noche</tspan></text>
</svg>