<?xml version="1.0" encoding="UTF-8"?>
<svg id="Capa_1" xmlns="http://www.w3.org/2000/svg" viewBox="0 0 1268.43 574">
  <defs>
    <style>
      .cls-1 {
        font-size: 13px;
        letter-spacing: .1em;
      }

      .cls-1, .cls-2, .cls-3, .cls-4, .cls-5 {
        fill: #353533;
      }

      .cls-1, .cls-4 {
        font-family: Rubik-Regular, Rubik;
      }

      .cls-6 {
        letter-spacing: 0em;
      }

      .cls-7 {
        letter-spacing: -.01em;
      }

      .cls-8 {
        letter-spacing: 0em;
      }

      .cls-9 {
        letter-spacing: 0em;
      }

      .cls-2 {
        stroke: #000;
        stroke-miterlimit: 10;
      }

      .cls-3 {
        font-family: 'BrittanySignature';
        font-size: 23.96px;
      }

      .cls-4 {
        font-size: 16.77px;
      }

      .cls-10 {
        letter-spacing: .1em;
      }

      @font-face {
        font-family: 'BrittanySignature';
        src: url('../fonts/BrittanySignature.ttf') format('truetype');
      }
    </style>
  </defs>
  <line class="cls-2" x1="151.46" y1="308.78" x2="1132.17" y2="308.78"/>
  <g>
    <g>
      <polyline class="cls-5" points="120.74 313.24 120.74 313.2 120.74 313.24"/>
      <polygon class="cls-5" points="116.43 318.61 116.43 318.6 116.38 318.58 116.43 318.65 116.43 318.61 116.43 318.61"/>
      <polygon class="cls-5" points="116.34 318.56 116.38 318.58 116.33 318.5 116.34 318.56"/>
      <path class="cls-5" d="M151.65,308.82l.05-.03h0c.11.08.22.16.33.23h0c.16,0,.32,0,.48-.01.13.18.23.17.29-.05h.04s-.03-.03-.03-.03v.02s-.33.03-.33.03h0c-.15-.09-.3-.09-.44.01-.12-.08-.25-.16-.37-.24l-.03.05Z"/>
      <path class="cls-5" d="M117.13,293.18c.6.45,1.19.9,1.78,1.35h.01c-.78-.74-1.56-1.48-2.43-2.31.04.51.33.73.63.96Z"/>
      <polygon class="cls-5" points="102.29 296.95 102.3 296.92 102.28 296.92 102.29 296.95"/>
      <path class="cls-5" d="M102.16,296.84l.04.09c.09.13-.02-.03.09-.01l-.12-.08Z"/>
      <polygon class="cls-5" points="116.43 318.65 116.43 318.65 116.43 318.65 116.43 318.65"/>
      <polygon class="cls-5" points="120.74 313.2 120.7 313.24 120.74 313.24 120.74 313.2"/>
      <polygon class="cls-5" points="118.33 315.79 118.37 315.76 118.33 315.76 118.33 315.79"/>
      <path class="cls-5" d="M140.92,303.51c-1.44-1.15-2.89-2.3-4.49-3.23-1.75-1.01-3.6-1.6-5.63-1.6-1.53,0-2.94-.41-4.4-.91-1.72-.6-3.14-1.55-4.52-2.65-.57-.46-1.03-.97-1.17-1.73-.27-1.43-1.06-2.65-1.73-3.9-.49-.91-1.27-1.48-2.29-1.85-1.22-.44-2.39-.73-3.69-.52-.63.1-1.23-.19-1.84-.35-1.47-.38-1.88.05-1.46,1.52.27.93.59,1.84.92,2.75.3.82.85,1.39,1.62,1.85,1.94,1.15,4.08,1.85,6.2,2.41,1.39.37,2.54.98,3.7,1.71.85.54,1.73,1,2.8,1.61-1.69.49-3.18.92-4.75,1.02-.67.05-1.35.09-1.99.28-1.55.47-3.15.48-4.74.6-1.01.08-1.76-.4-2.17-1.34-.15-.34-.23-.72-.33-1.09-.39-1.41-1.2-2.5-2.5-3.18-.75-.39-1.46-.83-2.12-1.34-.94-.73-1.95-.78-2.96-.3-1.11.53-2.2,1.02-3.43,1.2-.69.1-.92.54-.71,1.19.11.35.31.69.53,1,.35.49.59,1.01.75,1.58.46,1.71,1.47,2.89,3.28,3.29.41.09.79.28,1.19.42,1.21.42,2.43.58,3.72.26,1.38-.35,2.78-.49,4.23-.29,1.85.24,3.69,0,5.49-.51.48-.14.98-.33,1.47-.33,1.83.02,3.59-.36,5.34-.83,1.15-.3,2.32-.25,3.5.03,1.27.3,2.55.55,3.85.7,1.36.15,2.47.77,3.5,1.59,1.28,1.02,2.56,2.04,3.85,3.05.42.33.88.61,1.33.92-.26.39-.63.35-.94.37-3.09.17-5.73,1.54-8.31,3.06-1.23.73-2.43,1.5-3.63,2.28-.61.39-1.21.48-1.91.27-1.49-.45-3.01-.85-4.57-.89-1.66-.04-3.28.19-4.68,1.2l-.21.13c-1.21,1.64-2.74,3.09-2.99,5.28-.09.75-.2,1.5-.35,2.24-.41,1.95-1.56,3.31-3.36,4.15-.4.18-1.01.26-.81.9.19.59.75.61,1.27.56.73-.08,1.37-.39,1.97-.8.17-.12.32-.27.48-.41,1.29-1.17,2.61-2.24,4.47-2.36.48-.03.97-.29,1.41-.52.88-.45,1.79-.74,2.77-.79,1.38-.07,2.38-.78,3.14-1.85.61-.86,1.23-1.72,1.53-2.74.25-.84.79-1.47,1.23-2.18.18-.29.43-.53.76-.63,1.59-.5,2.9-1.51,4.3-2.35,1.71-1.03,3.51-1.81,5.47-2.19,1.08-.21,2.13-.49,3.18-.81,1.28-.4,2.56-.45,3.82.15.49.23,1.03.37,1.53.6,1.79.82,3.66,1.22,5.64,1.06.75-.06,1.51-.02,2.27.03,1.72.1,3.42,0,5.09-.38.07-.08.15-.15.22-.25.09-.12.16-.26.23-.4-3.15.64-6.32.25-9.48.31-1.43.02-2.79-.38-4-1.21.32-.22.6.02.89.09.49.12.97.36,1.5.19-1.57-.52-3.13-1.04-4.61-1.77-.75-.37-1.52-.7-2.35-1.52,1.09.43,1.94.69,2.72,1.09,2.5,1.27,5.2,1.67,7.94,1.8,2.6.13,5.2.21,7.8.19.07-.19.14-.38.19-.58-3.75-.1-7.51-.03-11.23-.56-3.21-.45-6.13-1.71-8.68-3.75ZM111.71,291.81c-.16-.19-.32-.4-.4-.64-.36-1.03-.73-2.05-1.02-3.1-.2-.72.15-1.01.91-.79.48.14.94.37,1.46.36.63-.01,1.26-.06,1.89-.02,1.04.07,1.24.37.96,1.38-.04.16-.1.32-.18.47-.36.66-.71.73-1.41.36-.56-.29-.99-.83-1.74-.91.4.54.89.87,1.39,1.17.4.23.48.42.24.89-.44.86-.17,1.49.64,2,.3.19.74.19.91.62-.81-.12-3.23-1.29-3.65-1.79ZM117.86,291.88c.38.87,1.01,1.65,1.07,2.66h0c.17.07.42.09.32.43-.79,0-1.43-.35-2.1-.7-.76-.39-1.25-1.11-2-1.51-1.2-.64-1.21-.97-.24-1.93.5-.49,1.06-.93,1.17-1.73.12-.87.49-1.02,1.21-.53.75.51,1.27,1.23,1.61,2.05.43,1.05.82,2.11,1.19,3.18.1.29.25.63-.17,1-1.19-1.33-1.22-3.38-2.82-4.63.13.76.53,1.2.75,1.71ZM120.67,294.99c.18-.22.38-.08.53.06.5.47,1.03.91,1.44,1.47-.77-.05-1.29-.63-1.9-.99-.21-.12-.21-.36-.06-.54ZM122.79,296.74l-.1-.19.21-.03c.15.06.36.19.27.34-.11.17-.27-.02-.38-.12ZM124.27,297.63l-.05-.08.07-.03.05.08-.07.03ZM106.33,294.94c1.49-.05,3.06,1.01,3.71,2.58.19.46.53.94.21,1.68-.91-1.32-1.79-2.48-3.37-3.12.75.9,1.61,1.48,2.27,2.35-.89.18-1.48-.78-2.3-.22.29.44.74.49,1.1.68.41.21.86.35,1.25.76-.37.62-1.13.57-1.46,1.04-.35.5-.76.46-1.21.33-.36-.1-.72-.24-1.07-.38-1.33-.5-1.75-1.62-1.06-2.88.19-.34.32-.67.3-1.06-.04-.99.66-1.73,1.62-1.76ZM106.87,301.79c-.09.06-.18.08-.29.05.08-.09.18-.1.29-.05ZM106.51,301.83c-.19,0-.36-.05-.47-.21.23-.09.36.06.47.21ZM106.34,294.1c-1.27.74-2.58,1.17-4.1.64,1.83-1.49,2.82-1.63,4.1-.64ZM103.52,300.92c-1.22-.28-1.94-1.14-2.26-2.31-.25-.9-.56-1.75-1.15-2.49-.18-.23-.36-.53-.22-.81.16-.31.51-.25.8-.21.95.13,1.86.52,2.85.46.26-.02.25.25.35.42.65,1-.09,1.61-.54,2.38-.62-.36-.82-.91-1.06-1.43v.03c-.17.8.4,1.29.77,1.87.73,1.17,1.54,2.25,2.88,2.79-.92.18-1.61-.49-2.43-.68ZM107.68,301.75c.65-.46,1.35-.54,2.11-.28-.67.32-1.36.52-2.11.28ZM125.69,299.52c-1.8.37-3.54,1.07-5.44.94-.45-.03-.94.03-1.37.16-2.32.73-4.68.86-7.1.69-.92-.07-1.78-.1-2.55-.81.53-.32,1.07-.57,1.63-.2.91.6,1.91.53,2.91.5,1.81-.05,3.58-.37,5.37-.62,1.7-.24,3.41-.42,5.08-.87.56-.15,1.14-.15,1.71,0-.08.08-.15.19-.24.21ZM110.97,325.15c.08-.06.16-.12.24-.17-.03.11-.02.28-.24.17ZM125.87,316.24c-.37.95-.92,1.79-1.5,2.62-.6.87-1.4,1.49-2.47,1.59-1.32.12-2.55.47-3.72,1.07-.33.17-.71.31-1.07.34-1.71.12-2.96,1.1-4.14,2.19-.37.34-.73.7-1.19.92-.19.09-.37.16-.54-.02.86-.64,1.76-1.22,2.28-2.24.64-1.25,1.02-2.56,1.15-3.94.2-2.07,1.09-3.51,3.28-4.01,1.02-.23,2.03-.66,2.75-1.53-.72.01-1.32.38-1.96.66-.52.23-1.04.49-1.73.48.48-.97,1.25-1.35,2.09-1.62,1.42-.46,2.88-.56,4.35-.3.87.15,1.77.18,2.63.58-.34.49-.77.55-1.16.69-.99.36-2.02.53-3.07.62-1.29.11-2.54.41-3.48,1.4.72.03,1.32-.36,1.99-.52,1.04-.26,2.07-.48,3.34-.4-.57.51-1.05.85-1.42,1.29-.89,1.08-1.98,1.61-3.38,1.61-.45,0-.92.09-1.36.2-.42.11-.88.21-1.09.67.38-.03.77-.21,1.31,0-.74.68-1.35,1.29-1.92,2.29.42-.38.67-.55.84-.77.66-.88,1.56-1.37,2.6-1.65.85-.24,1.64-.64,2.39-1.12.2-.13.37-.38.74-.08-.52.73-1.04,1.47-1.62,2.28.72-.1,1.09-.53,1.47-.91.58-.56.9-1.31,1.3-2,.71-1.24,1.81-1.91,3.37-2.29-.5.7-.82,1.27-1.05,1.89ZM146.7,308.33c-.3.06-.49-.11-.67-.32.32-.09.5.1.67.32ZM145.98,307.98c-.22.09-.38,0-.5-.18.24-.14.37.02.5.18ZM145.19,307.55c.1.04.16.15.24.24-.14.11-.3.08-.45.02-1.32-.53-2.65-.39-3.96,0-1.21.36-2.44.64-3.67.91-.86.19-1.69.48-2.51.82-1.68.69-3.12,1.81-4.7,2.69-1.41.78-2.75,1.76-4.54,1.91.49-.58,1.08-.77,1.67-.93.66-.18,1.26-.48,1.83-.82,1.23-.73,2.41-1.53,3.65-2.23,2.39-1.34,4.8-2.62,7.62-2.78.69-.04,1.32-.34,2.03-.65-.79-.55-1.59-.85-2.2-1.44-1.21-1.17-2.5-2.24-3.83-3.27-1.11-.86-2.29-1.53-3.74-1.67-1.09-.11-2.18-.25-3.24-.51-1.13-.28-2.31-.2-3.42-.54.19-.21.14-.4-.06-.6-.31-.32-.83-.39-1.1-.91.63,0,1.17.15,1.62.43,1.38.85,2.9,1.05,4.47,1.06,2.03.02,3.87.65,5.58,1.71,1.18.73,2.31,1.52,3.35,2.43.46.4,1.12.58,1.39,1.26-.34.03-.55-.4-.85-.26,1.42,1.31,2.97,2.42,4.79,3.14Z"/>
      <path class="cls-5" d="M118.3,315.79c-.29-.08-.49.1-.8.29.43.15.63-.05.8-.29Z"/>
      <polygon class="cls-5" points="116.43 318.65 116.45 318.6 116.43 318.61 116.43 318.65"/>
      <polygon class="cls-5" points="118.3 315.79 118.33 315.79 118.33 315.76 118.3 315.79"/>
      <polygon class="cls-5" points="150.46 308.84 150.46 308.84 150.46 308.84 150.46 308.84"/>
      <polygon class="cls-5" points="150.46 308.84 150.5 308.84 150.46 308.84 150.46 308.84"/>
      <polygon class="cls-5" points="150.47 308.83 150.45 308.83 150.46 308.84 150.47 308.83"/>
      <polygon class="cls-5" points="152.82 308.91 152.8 308.93 152.83 308.94 152.82 308.91"/>
      <path class="cls-5" d="M150.45,308.83c-.22-.27-.5-.31-.81-.24.22.24.54.17.81.24Z"/>
      <polygon class="cls-5" points="149.6 308.56 149.55 308.58 149.6 308.6 149.6 308.56"/>
      <polygon class="cls-5" points="150.51 308.78 150.47 308.83 150.5 308.84 150.51 308.78"/>
      <polygon class="cls-5" points="149.6 308.56 149.6 308.6 149.63 308.59 149.6 308.56"/>
      <path class="cls-5" d="M149.55,308.58c-.1-.04-.2-.03-.29.03.1.04.2.04.29-.03Z"/>
      <polygon class="cls-5" points="153.78 308.86 153.77 308.88 153.8 308.89 153.79 308.91 153.83 308.91 153.8 308.91 153.8 308.9 153.83 308.91 153.93 308.93 153.93 308.9 153.91 308.81 153.81 308.85 153.78 308.86"/>
      <polygon class="cls-5" points="149.26 308.62 149.21 308.61 149.22 308.64 149.26 308.62"/>
      <polygon class="cls-5" points="149.21 308.61 149.15 308.62 149.22 308.64 149.21 308.61"/>
    </g>
    <g>
      <polyline class="cls-5" points="1162.89 313.24 1162.89 313.2 1162.89 313.24"/>
      <polygon class="cls-5" points="1167.2 318.61 1167.2 318.6 1167.24 318.58 1167.2 318.65 1167.2 318.61 1167.2 318.61"/>
      <polygon class="cls-5" points="1167.29 318.56 1167.24 318.58 1167.3 318.5 1167.29 318.56"/>
      <path class="cls-5" d="M1131.97,308.82l-.05-.03h0c-.11.08-.22.16-.33.23h0c-.16,0-.32,0-.48-.01-.13.18-.23.17-.29-.05h-.04s.03-.03.03-.03v.02s.33.03.33.03h0c.15-.09.3-.09.44.01.12-.08.25-.16.37-.24l.03.05Z"/>
      <path class="cls-5" d="M1166.5,293.18c-.6.45-1.19.9-1.78,1.35h-.01c.78-.74,1.56-1.48,2.43-2.31-.04.51-.33.73-.63.96Z"/>
      <polygon class="cls-5" points="1181.33 296.95 1181.32 296.92 1181.34 296.92 1181.33 296.95"/>
      <path class="cls-5" d="M1181.47,296.84l-.04.09c-.09.13.02-.03-.09-.01l.12-.08Z"/>
      <polygon class="cls-5" points="1167.2 318.65 1167.2 318.65 1167.2 318.65 1167.2 318.65"/>
      <polygon class="cls-5" points="1162.89 313.2 1162.93 313.24 1162.89 313.24 1162.89 313.2"/>
      <polygon class="cls-5" points="1165.3 315.79 1165.26 315.76 1165.3 315.76 1165.3 315.79"/>
      <path class="cls-5" d="M1134.03,307.26c-3.72.53-7.48.46-11.23.56.06.2.12.39.19.58,2.6.02,5.2-.06,7.8-.19,2.74-.13,5.44-.54,7.94-1.8.78-.39,1.63-.65,2.72-1.09-.83.82-1.6,1.15-2.35,1.52-1.48.73-3.05,1.26-4.61,1.77.53.17,1.01-.07,1.5-.19.29-.07.57-.3.89-.09-1.2.84-2.57,1.24-4,1.21-3.16-.05-6.34.33-9.48-.31.08.13.14.27.23.4.07.09.15.16.22.25,1.68.38,3.37.48,5.09.38.76-.04,1.52-.09,2.27-.03,1.98.16,3.85-.23,5.64-1.06.5-.23,1.03-.37,1.53-.6,1.26-.6,2.53-.55,3.82-.15,1.05.32,2.1.61,3.18.81,1.97.38,3.76,1.16,5.47,2.19,1.4.84,2.71,1.86,4.3,2.35.34.11.59.35.76.63.44.71.98,1.34,1.23,2.18.3,1.01.93,1.88,1.53,2.74.76,1.08,1.76,1.78,3.14,1.85.98.05,1.89.34,2.77.79.45.23.93.48,1.41.52,1.86.13,3.18,1.19,4.47,2.36.16.14.31.29.48.41.59.41,1.24.72,1.97.8.52.05,1.09.03,1.27-.56.2-.64-.41-.72-.81-.9-1.79-.84-2.95-2.2-3.36-4.15-.16-.74-.27-1.49-.35-2.24-.25-2.19-1.78-3.64-2.99-5.28l-.21-.13c-1.4-1.01-3.02-1.24-4.68-1.2-1.56.04-3.08.44-4.57.89-.7.21-1.31.12-1.91-.27-1.2-.77-2.4-1.55-3.63-2.28-2.58-1.53-5.22-2.9-8.31-3.06-.31-.02-.68.02-.94-.37.44-.31.9-.59,1.33-.92,1.29-1.01,2.56-2.04,3.85-3.05,1.04-.82,2.14-1.44,3.5-1.59,1.29-.14,2.58-.4,3.85-.7,1.18-.28,2.35-.33,3.5-.03,1.76.46,3.51.85,5.34.83.49,0,.99.19,1.47.33,1.8.51,3.64.76,5.49.51,1.45-.19,2.85-.05,4.23.29,1.28.32,2.5.16,3.72-.26.4-.14.78-.33,1.19-.42,1.81-.4,2.81-1.58,3.28-3.29.16-.58.4-1.1.75-1.58.22-.3.42-.64.53-1,.21-.66-.02-1.09-.71-1.19-1.23-.18-2.33-.67-3.43-1.2-1.02-.49-2.02-.43-2.96.3-.66.51-1.37.95-2.12,1.34-1.3.68-2.11,1.77-2.5,3.18-.1.36-.18.74-.33,1.09-.41.94-1.16,1.42-2.17,1.34-1.59-.12-3.19-.13-4.74-.6-.64-.2-1.32-.24-1.99-.28-1.57-.1-3.06-.53-4.75-1.02,1.06-.61,1.95-1.07,2.8-1.61,1.16-.74,2.31-1.34,3.7-1.71,2.13-.57,4.26-1.26,6.2-2.41.77-.46,1.32-1.03,1.62-1.85.33-.91.65-1.82.92-2.75.42-1.47,0-1.9-1.46-1.52-.61.16-1.2.45-1.84.35-1.29-.21-2.47.08-3.69.52-1.02.37-1.8.94-2.29,1.85-.67,1.25-1.46,2.47-1.73,3.9-.14.76-.59,1.27-1.17,1.73-1.38,1.1-2.8,2.05-4.52,2.65-1.46.51-2.87.91-4.4.91-2.03,0-3.89.59-5.63,1.6-1.61.93-3.05,2.08-4.49,3.23-2.55,2.04-5.47,3.3-8.68,3.75ZM1168.27,293.6c.17-.43.61-.42.91-.62.81-.52,1.08-1.14.64-2-.24-.47-.16-.65.24-.89.51-.3,1-.62,1.39-1.17-.74.08-1.18.62-1.74.91-.69.36-1.05.3-1.41-.36-.08-.15-.14-.31-.18-.47-.27-1.01-.08-1.31.96-1.38.63-.04,1.26.01,1.89.02.52,0,.98-.22,1.46-.36.76-.22,1.11.06.91.79-.29,1.05-.66,2.07-1.02,3.1-.08.23-.24.45-.4.64-.42.5-2.84,1.67-3.65,1.79ZM1166.52,290.16c-1.59,1.26-1.62,3.3-2.82,4.63-.42-.37-.27-.71-.17-1,.38-1.07.77-2.13,1.19-3.18.34-.83.86-1.55,1.61-2.05.73-.49,1.1-.34,1.21.53.11.79.67,1.23,1.17,1.73.98.96.96,1.29-.24,1.93-.75.4-1.24,1.12-2,1.51-.67.35-1.32.7-2.1.7-.1-.34.15-.36.32-.43h0c.06-1,.68-1.78,1.07-2.66.23-.52.62-.96.75-1.71ZM1162.89,295.53c-.62.36-1.13.94-1.9.99.4-.57.93-1.01,1.44-1.47.15-.14.35-.28.53-.06.15.18.14.42-.06.54ZM1160.46,296.87c-.09-.14.11-.28.27-.34l.21.03-.1.19c-.11.11-.27.29-.38.12ZM1159.29,297.6l.05-.08.07.03-.05.08-.07-.03ZM1178.92,296.7c-.01.4.11.72.3,1.06.7,1.26.27,2.38-1.06,2.88-.35.13-.71.27-1.07.38-.46.13-.86.17-1.21-.33-.33-.47-1.08-.43-1.46-1.04.39-.41.84-.55,1.25-.76.36-.18.81-.23,1.1-.68-.83-.56-1.41.4-2.3.22.66-.87,1.52-1.44,2.27-2.35-1.58.65-2.47,1.8-3.37,3.12-.31-.75.02-1.22.21-1.68.66-1.57,2.22-2.63,3.71-2.58.96.03,1.66.77,1.62,1.76ZM1177.05,301.84c-.1.03-.2,0-.29-.05.11-.04.2-.03.29.05ZM1177.6,301.62c-.12.16-.28.21-.47.21.12-.16.24-.3.47-.21ZM1181.39,294.74c-1.52.53-2.83.1-4.1-.64,1.28-.99,2.27-.85,4.1.64ZM1177.68,301.6c1.34-.54,2.15-1.62,2.88-2.79.37-.58.93-1.07.78-1.87v-.03c-.24.53-.45,1.07-1.07,1.43-.45-.77-1.19-1.38-.54-2.38.11-.16.09-.43.35-.42.99.06,1.9-.33,2.85-.46.29-.04.64-.1.8.21.14.28-.03.58-.22.81-.59.74-.9,1.59-1.15,2.49-.32,1.17-1.04,2.03-2.26,2.31-.82.19-1.51.87-2.43.68ZM1173.84,301.47c.75-.26,1.46-.18,2.11.28-.75.24-1.44.04-2.11-.28ZM1157.7,299.31c.57-.15,1.15-.15,1.71,0,1.67.45,3.37.64,5.08.87,1.79.25,3.56.57,5.37.62,1,.03,2,.09,2.91-.5.56-.36,1.09-.12,1.63.2-.77.71-1.63.74-2.55.81-2.42.17-4.77.04-7.1-.69-.43-.14-.92-.19-1.37-.16-1.89.12-3.64-.57-5.44-.94-.09-.02-.16-.12-.24-.21ZM1172.42,324.98c.08.06.16.12.24.17-.21.1-.2-.06-.24-.17ZM1156.7,314.35c1.56.38,2.66,1.05,3.37,2.29.4.69.72,1.44,1.3,2,.39.37.75.81,1.47.91-.58-.82-1.1-1.55-1.62-2.28.38-.3.54-.04.74.08.75.48,1.53.88,2.39,1.12,1.04.29,1.94.77,2.6,1.65.17.23.42.39.84.77-.57-1-1.18-1.61-1.92-2.29.53-.21.92-.04,1.31,0-.21-.46-.67-.56-1.09-.67-.44-.12-.91-.21-1.36-.2-1.4,0-2.49-.53-3.38-1.61-.36-.44-.85-.78-1.42-1.29,1.26-.08,2.3.14,3.34.4.67.17,1.27.55,1.99.52-.95-.99-2.19-1.28-3.48-1.4-1.05-.09-2.08-.26-3.07-.62-.39-.14-.82-.2-1.16-.69.86-.4,1.77-.43,2.63-.58,1.47-.25,2.93-.15,4.35.3.84.27,1.61.65,2.09,1.62-.7,0-1.21-.26-1.73-.48-.63-.28-1.24-.65-1.96-.66.72.86,1.72,1.29,2.75,1.53,2.18.5,3.08,1.94,3.28,4.01.13,1.39.51,2.69,1.15,3.94.52,1.02,1.42,1.6,2.28,2.24-.17.17-.35.11-.54.02-.47-.22-.82-.57-1.19-.92-1.18-1.09-2.43-2.07-4.14-2.19-.37-.03-.74-.17-1.07-.34-1.17-.61-2.41-.95-3.72-1.07-1.07-.1-1.87-.72-2.47-1.59-.58-.83-1.13-1.67-1.5-2.62-.24-.62-.55-1.19-1.05-1.89ZM1137.59,308.01c-.17.21-.36.38-.67.32.16-.23.35-.42.67-.32ZM1138.15,307.81c-.12.18-.28.27-.5.18.13-.15.26-.32.5-.18ZM1143.22,304.41c-.3-.14-.51.29-.85.26.27-.68.93-.86,1.39-1.26,1.04-.91,2.18-1.7,3.35-2.43,1.71-1.06,3.55-1.69,5.58-1.71,1.57-.02,3.09-.21,4.47-1.06.45-.28.99-.42,1.62-.43-.26.52-.78.59-1.1.91-.2.21-.25.39-.06.6-1.11.34-2.29.27-3.42.54-1.06.26-2.15.4-3.24.51-1.45.14-2.63.81-3.74,1.67-1.32,1.03-2.62,2.1-3.83,3.27-.61.59-1.41.89-2.2,1.44.71.31,1.34.61,2.03.65,2.82.17,5.24,1.45,7.62,2.78,1.24.7,2.43,1.5,3.65,2.23.58.34,1.18.64,1.83.82.59.16,1.19.35,1.67.93-1.8-.14-3.14-1.13-4.54-1.91-1.58-.88-3.01-1.99-4.7-2.69-.82-.34-1.65-.63-2.51-.82-1.23-.27-2.46-.55-3.67-.91-1.31-.39-2.64-.53-3.96,0-.15.06-.3.09-.45-.02.08-.09.14-.2.24-.24,1.81-.72,3.37-1.83,4.79-3.14Z"/>
      <path class="cls-5" d="M1165.33,315.79c.29-.08.49.1.8.29-.43.15-.63-.05-.8-.29Z"/>
      <polygon class="cls-5" points="1167.2 318.65 1167.18 318.6 1167.2 318.61 1167.2 318.65"/>
      <polygon class="cls-5" points="1165.33 315.79 1165.3 315.79 1165.3 315.76 1165.33 315.79"/>
      <polygon class="cls-5" points="1133.17 308.84 1133.17 308.84 1133.17 308.84 1133.17 308.84"/>
      <polygon class="cls-5" points="1133.16 308.84 1133.12 308.84 1133.17 308.84 1133.16 308.84"/>
      <polygon class="cls-5" points="1133.16 308.83 1133.18 308.83 1133.17 308.84 1133.16 308.83"/>
      <polygon class="cls-5" points="1130.81 308.91 1130.82 308.93 1130.8 308.94 1130.81 308.91"/>
      <path class="cls-5" d="M1133.18,308.83c.22-.27.5-.31.81-.24-.22.24-.54.17-.81.24Z"/>
      <polygon class="cls-5" points="1134.03 308.56 1134.08 308.58 1134.03 308.6 1134.03 308.56"/>
      <polygon class="cls-5" points="1133.12 308.78 1133.16 308.83 1133.12 308.84 1133.12 308.78"/>
      <polygon class="cls-5" points="1134.03 308.56 1134.03 308.6 1133.99 308.59 1134.03 308.56"/>
      <path class="cls-5" d="M1134.08,308.58c.1-.04.2-.03.29.03-.1.04-.2.04-.29-.03Z"/>
      <polygon class="cls-5" points="1129.84 308.86 1129.86 308.88 1129.83 308.89 1129.84 308.91 1129.79 308.91 1129.83 308.91 1129.83 308.9 1129.79 308.91 1129.7 308.93 1129.7 308.9 1129.72 308.81 1129.82 308.85 1129.84 308.86"/>
      <polygon class="cls-5" points="1134.36 308.62 1134.41 308.61 1134.41 308.64 1134.36 308.62"/>
      <polygon class="cls-5" points="1134.41 308.61 1134.48 308.62 1134.41 308.64 1134.41 308.61"/>
    </g>
  </g>
  <g>
    <circle class="cls-5" cx="325.06" cy="309.65" r="8.7" transform="translate(-86.52 130.35) rotate(-20.07)"/>
    <circle class="cls-5" cx="325.06" cy="369.63" r="2.87"/>
  </g>
  <g>
    <circle class="cls-5" cx="483.44" cy="309.81" r="8.7" transform="translate(71.14 709.43) rotate(-76.76)"/>
    <path class="cls-5" d="M486.31,249.83c0,1.59-1.29,2.87-2.87,2.87s-2.87-1.29-2.87-2.87,1.29-2.87,2.87-2.87,2.87,1.29,2.87,2.87Z"/>
  </g>
  <g>
    <circle class="cls-5" cx="641.81" cy="309.65" r="8.7" transform="translate(-70.66 323.4) rotate(-26.86)"/>
    <circle class="cls-5" cx="641.81" cy="369.63" r="2.87"/>
  </g>
  <g>
    <circle class="cls-5" cx="800.19" cy="309.81" r="8.7" transform="translate(15.31 656.56) rotate(-45)"/>
    <path class="cls-5" d="M803.06,249.83c0,1.59-1.29,2.87-2.87,2.87s-2.87-1.29-2.87-2.87,1.29-2.87,2.87-2.87,2.87,1.29,2.87,2.87Z"/>
  </g>
  <g>
    <circle class="cls-5" cx="958.57" cy="309.65" r="8.7" transform="translate(-39.46 446.3) rotate(-25.7)"/>
    <circle class="cls-5" cx="958.57" cy="369.63" r="2.87"/>
  </g>
  <g>
    <circle class="cls-5" cx="166.68" cy="309.81" r="8.7" transform="translate(-106.28 87.87) rotate(-22.61)"/>
    <circle class="cls-5" cx="166.68" cy="249.83" r="2.87"/>
  </g>
  <g>
    <circle class="cls-5" cx="1116.95" cy="309.81" r="8.7" transform="translate(-33.27 453.14) rotate(-22.61)"/>
    <circle class="cls-5" cx="1116.95" cy="249.83" r="2.87"/>
  </g>
  <text class="cls-3" transform="translate(123.84 208.05)" font-family="BrittanySignature"><tspan x="0" y="0">Ceremonia</tspan></text>
  <text class="cls-3" transform="translate(285.41 413.89)"><tspan x="0" y="0">R</tspan><tspan class="cls-6" x="22.07" y="0">e</tspan><tspan x="29.19" y="0">cep</tspan><tspan class="cls-7" x="50.49" y="0">ci</tspan><tspan x="63.07" y="0">ón</tspan></text>
  <text class="cls-3" transform="translate(460.02 205.06)"><tspan x="0" y="0">Fotos</tspan></text>
  <text class="cls-3" transform="translate(620.27 413.89)"><tspan x="0" y="0">Ce</tspan><tspan class="cls-6" x="25.47" y="0">n</tspan><tspan x="34.17" y="0">a</tspan></text>
  <text class="cls-3" transform="translate(923.28 413.89)"><tspan x="0" y="0">B</tspan><tspan class="cls-9" x="23.46" y="0">r</tspan><tspan x="32.88" y="0">ind</tspan><tspan class="cls-9" x="54.99" y="0">i</tspan><tspan x="60.91" y="0">s</tspan></text>
  <text class="cls-3" transform="translate(772.87 208.05)"><tspan x="0" y="0">Ba</tspan><tspan class="cls-9" x="32.37" y="0">i</tspan><tspan x="38.29" y="0">le</tspan></text>
  <text class="cls-3" transform="translate(1089.16 208.05)"><tspan x="0" y="0">Fiesta</tspan></text>
  <g>
    <path class="cls-5" d="M178.56,138.32c-2.83,10.76-12.63,18.72-24.27,18.72-13.84,0-25.09-11.26-25.09-25.09s11.26-25.09,25.09-25.09,24.14,10.34,25.03,23.37c.53,0,1.07-.02,1.59-.03-.9-13.9-12.49-24.94-26.62-24.94s-26.68,11.97-26.68,26.68,11.97,26.68,26.68,26.68c12.68,0,23.31-8.89,26.01-20.76-.5.26-1.07.42-1.74.45Z"/>
    <path class="cls-5" d="M170.9,136.98c-2.16,7.12-8.79,12.32-16.61,12.32-9.57,0-17.36-7.79-17.36-17.36s7.79-17.36,17.36-17.36c8.43,0,15.47,6.04,17.03,14.01.06.02.12.03.18.06.51.19,1.02.38,1.54.56-1.33-9.16-9.23-16.23-18.75-16.23-10.45,0-18.95,8.5-18.95,18.95s8.5,18.95,18.95,18.95c8.57,0,15.83-5.72,18.16-13.55-.52-.09-1.04-.21-1.55-.37Z"/>
    <path class="cls-5" d="M179.07,85.63c-12.39,0-22.83,8.49-25.82,19.95.12,0,.24,0,.37.03.41.07.82.13,1.22.2,2.87-10.69,12.65-18.58,24.23-18.58,13.84,0,25.09,11.26,25.09,25.09s-11.26,25.09-25.09,25.09-24.21-10.4-25.03-23.49c-.53-.02-1.07-.02-1.6-.02.82,13.98,12.45,25.1,26.63,25.1s26.68-11.97,26.68-26.68-11.97-26.68-26.68-26.68Z"/>
    <path class="cls-5" d="M179.07,93.36c-8.56,0-15.81,5.71-18.15,13.52.52.11,1.03.24,1.55.38,2.17-7.11,8.79-12.3,16.61-12.3,9.57,0,17.36,7.79,17.36,17.36s-7.79,17.36-17.36,17.36c-8.75,0-16.01-6.52-17.19-14.95-.46.13-.94.17-1.43.15-.05,0-.1,0-.15-.01,1.25,9.25,9.19,16.4,18.78,16.4,10.45,0,18.95-8.5,18.95-18.95s-8.5-18.95-18.95-18.95Z"/>
  </g>
  <g>
    <path class="cls-5" d="M509.07,118.33h-21.4v-7.21h2.73v-6.38h-13.93v6.38h2.73v7.21h-7.96v-4.49h-11.46v4.49h-1.98c-2.77,0-5.02,2.25-5.02,5.02v30.77c0,2.77,2.25,5.02,5.02,5.02h51.27c2.77,0,5.02-2.25,5.02-5.02v-30.77c0-2.77-2.25-5.02-5.02-5.02ZM461.73,115.79h7.56v2.48h-7.56v-2.48ZM478.42,106.69h10.03v2.48h-10.03v-2.48ZM481.15,111.15h4.58v7.13h-4.58v-7.13ZM454.72,146.38h12.77v-1.95h-12.77v-21.08c0-1.7,1.38-3.08,3.08-3.08h51.27c1.7,0,3.08,1.38,3.08,3.08v21.08h-13.05v1.95h13.05v7.74c0,1.7-1.38,3.08-3.08,3.08h-51.27c-1.7,0-3.08-1.38-3.08-3.08v-7.74Z"/>
    <path class="cls-5" d="M483.44,152.1c7.37,0,13.36-5.99,13.36-13.36s-5.99-13.36-13.36-13.36-13.36,5.99-13.36,13.36,5.99,13.36,13.36,13.36ZM472.02,138.74c0-6.29,5.12-11.41,11.41-11.41s11.41,5.12,11.41,11.41-5.12,11.41-11.41,11.41-11.41-5.12-11.41-11.41Z"/>
    <path class="cls-5" d="M508.02,122.72h-7.78v7.78h7.78v-7.78ZM502.19,128.55v-3.88h3.88v3.88h-3.88Z"/>
  </g>
  <path class="cls-5" d="M355.58,468.89l.19-.24h-41.08l-6.61-10.58-.08-.13-1.6,1,6.06,9.71h-12.38l26.9,34.67v20.8h-9.12v1.88h20.12v-1.88h-9.12v-20.8l26.71-34.43ZM317.7,477.01h-5.27v1.88h6.45l8.71,13.95.08.13,1.6-1-8.17-13.08h14.34v-1.88h-15.52l-4.05-6.49h36.06l-23.99,30.93-23.99-30.93h9.71l4.05,6.49Z"/>
  <g>
    <path class="cls-5" d="M674.86,506.79c-.5-15.5-11.64-28.55-26.92-31.41-.28-3.15-2.9-5.64-6.12-5.64s-5.86,2.5-6.12,5.66c-7.33,1.38-14.02,5.2-18.93,10.89-4.93,5.72-7.72,12.96-7.97,20.5h-4.96v1.75h75.96v-1.75h-4.93ZM641.81,480.35c-2.44,0-4.43-1.99-4.43-4.43s1.99-4.43,4.43-4.43,4.43,1.99,4.43,4.43-1.99,4.43-4.43,4.43ZM610.54,506.79c.25-7.12,2.89-13.96,7.54-19.36,4.59-5.33,10.84-8.92,17.68-10.26.58,2.81,3.07,4.93,6.05,4.93s5.48-2.12,6.05-4.94c14.32,2.8,24.73,15.06,25.23,29.63h-62.55Z"/>
    <path class="cls-5" d="M674.06,509.7c0,1.97-1.3,3.56-2.9,3.56h-58.71c-1.6,0-2.9-1.6-2.9-3.56v-.15h-1.75v.15c0,2.93,2.08,5.31,4.64,5.31h58.71c2.56,0,4.64-2.38,4.64-5.31v-.15h-1.74v.15Z"/>
  </g>
  <path class="cls-5" d="M990.26,504.56v-15.65h2.69s.15,0,.15,0l.06-4.93c0-3.91-3.18-7.08-7.08-7.08-.75,0-1.49.13-2.19.36v-10.95h2.1s.15,0,.15,0l.05-4.05c0-3.16-2.61-5.73-5.82-5.73-1.68,0-3.26.71-4.37,1.96-1.11-1.24-2.69-1.96-4.37-1.96s-3.26.71-4.37,1.96c-1.01-1.13-2.41-1.79-3.9-1.91,1.55-1.48,3.01-3.35,3.64-5.51.21-.6.32-1.22.32-1.85,0-3.05-2.48-5.52-5.52-5.52-1.26,0-2.49.44-3.47,1.23-.98-.8-2.21-1.23-3.47-1.23-3.04,0-5.52,2.48-5.52,5.52,0,.62.11,1.25.32,1.84.63,2.19,2.12,4.07,3.68,5.56-1.36.19-2.62.83-3.54,1.87-1.11-1.24-2.69-1.96-4.37-1.96s-3.26.71-4.37,1.96c-1.11-1.24-2.69-1.96-4.37-1.96-3.21,0-5.82,2.57-5.82,5.73v3.95h2.3v11.05c-.7-.23-1.44-.36-2.19-.36-3.91,0-7.08,3.18-7.08,7.08v4.8h2.9v15.78c-3.79.52-6.72,3.77-6.72,7.69v5.23l76.7.14h.15l.07-5.38c0-3.93-2.93-7.18-6.72-7.69ZM958.32,457.98c-1.76-1.08-5.76-3.88-6.79-7.5l-.02-.06c-.14-.4-.22-.8-.22-1.21,0-1.96,1.6-3.56,3.56-3.56,1.05,0,2.04.46,2.72,1.27l.75.89.75-.89c.68-.81,1.67-1.27,2.72-1.27,1.96,0,3.56,1.6,3.56,3.56,0,.4-.07.81-.22,1.21l-.02.06c-1.04,3.62-5.03,6.41-6.79,7.49ZM957.64,460.66l.88,1.83.88-1.83c.64-1.32,2-2.16,3.49-2.16s2.85.85,3.49,2.16l.88,1.83.88-1.83c.64-1.32,2-2.16,3.49-2.16s2.85.85,3.49,2.16l.88,1.83.88-1.83c.64-1.32,2-2.16,3.49-2.16,2.13,0,3.86,1.68,3.86,3.75l-.03,2.1-51.39-.09v-1.99c0-2.08,1.73-3.77,3.86-3.77,1.48,0,2.85.85,3.49,2.16l.88,1.83.88-1.83c.64-1.32,2-2.16,3.49-2.16s2.85.85,3.49,2.16l.88,1.83.88-1.83c.64-1.32,2-2.16,3.49-2.16s2.85.85,3.49,2.16ZM981.93,466.34v11.93c-.5.36-.96.79-1.36,1.27-1.34-1.66-3.39-2.65-5.51-2.65s-4.17.99-5.51,2.65c-1.34-1.66-3.39-2.65-5.51-2.65s-4.17.99-5.51,2.65c-1.34-1.66-3.39-2.65-5.51-2.65s-4.17.99-5.51,2.65c-1.34-1.66-3.39-2.65-5.51-2.65s-4.17.99-5.51,2.65c-.39-.49-.86-.91-1.36-1.27v-11.93h46.81ZM937.37,481.8c.84-1.78,2.66-2.93,4.62-2.93s3.78,1.15,4.62,2.93l.89,1.87.89-1.87c.84-1.78,2.66-2.94,4.62-2.94s3.78,1.15,4.62,2.93l.89,1.87.89-1.87c.84-1.78,2.66-2.93,4.62-2.93s3.78,1.15,4.62,2.94l.89,1.87.89-1.87c.84-1.78,2.66-2.93,4.62-2.93s3.78,1.15,4.62,2.93l.89,1.87.89-1.87c.84-1.78,2.66-2.93,4.62-2.93,2.82,0,5.12,2.29,5.12,5.11l-.04,2.97-65.32-.12v-2.84c0-2.82,2.3-5.12,5.12-5.12,1.96,0,3.78,1.15,4.62,2.94l.89,1.87.89-1.87ZM988.3,504.53c-2.05.24-3.95,1.31-5.23,2.96-1.47-1.89-3.75-3.01-6.14-3.01s-4.66,1.12-6.14,3.01c-1.47-1.89-3.75-3.01-6.14-3.01s-4.66,1.12-6.14,3.01c-1.47-1.89-3.75-3.01-6.14-3.01s-4.66,1.12-6.14,3.01c-1.47-1.89-3.75-3.01-6.14-3.01s-4.66,1.12-6.14,3.01c-1.28-1.65-3.18-2.71-5.23-2.96v-15.57h59.55v15.57ZM933.09,509.77l.89,1.87.89-1.87c.96-2.02,3.02-3.33,5.25-3.33s4.29,1.31,5.25,3.33l.89,1.87.89-1.87c.96-2.02,3.02-3.33,5.25-3.33s4.29,1.31,5.25,3.33l.89,1.87.89-1.87c.96-2.02,3.02-3.33,5.25-3.33s4.29,1.31,5.25,3.33l.89,1.87.89-1.87c.96-2.02,3.02-3.33,5.25-3.33s4.29,1.31,5.25,3.33l.89,1.87.89-1.87c.96-2.02,3.02-3.33,5.25-3.33,3.2,0,5.81,2.6,5.81,5.8l-.04,3.42-72.94-.14v-3.27c0-3.2,2.61-5.81,5.81-5.81,2.23,0,4.29,1.31,5.25,3.33Z"/>
  <path class="cls-5" d="M831.03,159.37c-.33-9.1-5.37-14.49-9.54-17.42-4.47-3.14-8.84-4.15-9.02-4.19l-.24-.05-.23.07c-.18.06-4.52,1.38-9.87.45-7.25-1.27-12.72-5.93-16.25-13.85-3.81-8.55-7.59-14.62-11.23-18.05-3.06-2.88-4.8-2.74-4.85-2.74h-.4s-.26.31-.26.31c-.08.1-8.35,9.95-4.56,21.78,2.88,8.97,4.34,18.29,4.34,27.7v6.92h7.72l1.56-19.17c.48.11,1.17.29,1.98.55,4.92,1.54,9.12,4.85,11.84,9.33,2.39,3.94,6.5,8.75,12.54,9.29h26.51s-.03-.93-.03-.93ZM770.71,158.5v-5.12c0-9.59-1.49-19.09-4.42-28.25-3.09-9.64,2.55-17.89,3.89-19.65.65.21,2.22.94,4.47,3.43,3.12,3.45,6.35,8.9,9.6,16.19,4.72,10.59,12.17,13.94,17.58,14.89,5.2.91,9.55-.17,10.47-.43,1.8.48,15.79,4.66,16.89,18.93h-24.52c-5.25-.49-8.94-4.85-11.11-8.43-2.95-4.85-7.51-8.44-12.85-10.11-1.88-.59-3.13-.8-3.18-.81l-.97-.16-1.58,19.51h-4.26Z"/>
  <g>
    <path class="cls-5" d="M1108.45,133.56c-.93,0-1.83-.3-2.58-.87-.92-.69-1.52-1.7-1.68-2.84-.16-1.14.13-2.28.82-3.2.69-.92,1.7-1.52,2.84-1.68l.78-.11-.11-.78c-.16-1.14.13-2.28.82-3.2.69-.92,1.7-1.52,2.84-1.68,1.14-.17,2.28.13,3.2.82.92.69,1.52,1.7,1.68,2.84l1.21,8.49c.07.46-.25.88-.71.95l-8.49,1.21c-.21.03-.41.04-.61.04ZM1112.79,120.84c-.12,0-.25,0-.37.03h0c-1.44.2-2.44,1.54-2.24,2.98l.23,1.61c.07.46-.25.88-.71.95l-1.61.23c-.7.1-1.31.46-1.74,1.03-.42.56-.6,1.25-.5,1.95.2,1.44,1.55,2.44,2.98,2.24l7.66-1.09-1.09-7.66c-.19-1.31-1.32-2.26-2.61-2.26ZM1112.3,120.04h.02-.02Z"/>
    <path class="cls-5" d="M1095.15,121.22c-.71,0-1.39-.23-1.97-.66-.7-.53-1.16-1.3-1.28-2.17-.12-.87.1-1.73.63-2.44.53-.7,1.3-1.16,2.17-1.28l.31-.04-.04-.31c-.12-.87.1-1.73.63-2.44.53-.7,1.3-1.16,2.17-1.28h0c1.76-.26,3.46.99,3.72,2.79l.85,5.99c.07.46-.25.88-.71.95l-5.99.85c-.16.02-.31.03-.47.03ZM1098.22,112.25c-.07,0-.15,0-.23.02h0c-.43.06-.8.28-1.06.63-.26.34-.36.77-.31,1.19l.16,1.14c.07.46-.25.88-.71.95l-1.14.16c-.43.06-.8.28-1.06.63-.26.34-.37.77-.31,1.19.12.88.93,1.5,1.82,1.37l5.15-.73-.73-5.16c-.11-.8-.8-1.38-1.59-1.38ZM1097.87,111.44h.02-.02Z"/>
    <path class="cls-5" d="M1149.93,167.29c-.5,0-1-.08-1.49-.25l-36.47-12.71c-1.47-.51-2.55-1.72-2.89-3.24-.34-1.52.12-3.08,1.22-4.17h0l22.87-22.52c1.08-1.06,2.6-1.5,4.08-1.18s2.69,1.35,3.23,2.76l13.6,35.22c.64,1.65.27,3.46-.96,4.72-.86.89-2.01,1.37-3.2,1.37ZM1111.48,148.11c-.69.68-.98,1.66-.77,2.61.21.95.89,1.71,1.81,2.02l36.47,12.71c1.06.37,2.15.11,2.93-.7.78-.8,1-1.91.6-2.95l-13.6-35.22c-.35-.89-1.08-1.52-2.02-1.72-.94-.2-1.87.07-2.55.74l-22.87,22.52Z"/>
    <path class="cls-5" d="M1118.56,155.34c-.23,0-.47-.1-.63-.29-.31-.35-.27-.88.08-1.18,1.74-1.53,3.5-1.28,5.05-1.06,1.42.2,2.55.36,3.71-.66,1.17-1.02,1.16-2.16,1.15-3.59-.01-1.57-.02-3.34,1.72-4.87,1.74-1.53,3.5-1.28,5.06-1.06,1.42.2,2.55.35,3.72-.67,1.17-1.02,1.16-2.16,1.15-3.6-.01-1.57-.02-3.34,1.72-4.87.35-.31.88-.27,1.18.08.31.35.27.88-.08,1.18-1.17,1.02-1.16,2.16-1.15,3.6.01,1.57.02,3.34-1.72,4.87-1.75,1.53-3.51,1.28-5.06,1.06-1.43-.2-2.56-.35-3.72.67-1.17,1.02-1.16,2.16-1.15,3.59.01,1.57.02,3.34-1.72,4.87-1.75,1.53-3.51,1.28-5.05,1.06-1.42-.2-2.54-.36-3.71.66-.16.14-.36.21-.55.21Z"/>
    <path class="cls-5" d="M1111.09,153.24c-.23,0-.46-.1-.63-.28-.31-.35-.28-.88.07-1.18,2.01-1.79,3.92-1.71,5.6-1.67,1.57.05,2.91.1,4.43-1.25,1.51-1.35,1.63-2.69,1.76-4.25.14-1.67.31-3.57,2.32-5.36,2.02-1.79,3.93-1.72,5.6-1.68,1.57.05,2.92.1,4.44-1.25,1.52-1.35,1.64-2.7,1.77-4.26.15-1.68.31-3.58,2.33-5.37.35-.31.88-.27,1.18.07.31.35.28.88-.07,1.18-1.52,1.35-1.64,2.7-1.77,4.26-.15,1.68-.31,3.58-2.33,5.37-2.02,1.79-3.92,1.73-5.6,1.68-1.57-.06-2.92-.1-4.44,1.25-1.51,1.34-1.63,2.69-1.76,4.25-.14,1.68-.31,3.57-2.32,5.36-2.01,1.79-3.92,1.72-5.6,1.67-1.57-.06-2.92-.1-4.43,1.25-.16.14-.36.21-.56.21Z"/>
    <path class="cls-5" d="M1122.58,123.09h-.02c-.46-.01-.83-.4-.82-.86.06-1.93,1.53-2.84,2.72-3.57,1.18-.73,1.9-1.22,1.93-2.19.03-.97-.66-1.51-1.79-2.3-1.14-.8-2.56-1.8-2.51-3.72.06-1.93,1.53-2.84,2.72-3.58,1.18-.73,1.9-1.22,1.93-2.2s-.66-1.51-1.79-2.31c-1.14-.8-2.56-1.8-2.51-3.73.01-.46.45-.78.86-.82.46.01.83.4.82.86-.03.97.66,1.51,1.79,2.31,1.14.8,2.56,1.8,2.51,3.73-.06,1.93-1.53,2.84-2.72,3.58-1.18.73-1.9,1.22-1.93,2.2-.03.97.66,1.51,1.79,2.3,1.14.8,2.56,1.8,2.51,3.72-.06,1.93-1.53,2.84-2.72,3.57-1.18.73-1.9,1.22-1.93,2.19-.01.45-.39.82-.84.82Z"/>
    <path class="cls-5" d="M1091.69,135.06c-.12,0-.24,0-.37-.03-1.53-.26-1.94-1.87-2.28-3.16-.23-.87-.48-1.85-.94-1.93-.4-.05-1.02.76-1.52,1.51-.74,1.11-1.67,2.46-3.2,2.23-1.52-.26-1.94-1.87-2.27-3.17-.22-.87-.47-1.85-.93-1.93-.46-.08-.76-.51-.68-.97.08-.46.49-.78.97-.68,1.52.26,1.94,1.87,2.27,3.16.22.87.47,1.85.92,1.93.42.05,1.02-.76,1.52-1.51.75-1.11,1.66-2.52,3.2-2.22,1.53.26,1.94,1.87,2.28,3.16.23.87.48,1.85.94,1.93.43.05,1.02-.76,1.52-1.51.75-1.11,1.67-2.51,3.2-2.22.46.08.76.51.68.97-.08.45-.5.77-.97.68-.43-.04-1.02.76-1.53,1.51-.68,1.01-1.52,2.25-2.83,2.25Z"/>
    <path class="cls-5" d="M1088.83,147.53c-1.51,0-2.48-1.18-3.27-2.15-.84-1.02-1.37-1.65-2.19-1.52-.45.07-.89-.25-.96-.71-.07-.46.25-.89.71-.96,1.79-.26,2.87,1.06,3.74,2.12.84,1.02,1.36,1.65,2.19,1.52.8-.12,1.15-.87,1.64-2.1.52-1.27,1.16-2.85,2.94-3.12,1.78-.27,2.87,1.05,3.74,2.12.83,1.02,1.36,1.65,2.19,1.52.8-.12,1.15-.87,1.65-2.1.52-1.27,1.16-2.85,2.95-3.12.45-.07.89.25.96.71.07.46-.25.89-.71.96-.8.12-1.15.87-1.65,2.1-.52,1.27-1.16,2.85-2.95,3.12-1.79.26-2.87-1.06-3.74-2.12-.84-1.02-1.37-1.66-2.19-1.52-.8.12-1.14.87-1.64,2.09-.52,1.27-1.16,2.86-2.95,3.13-.16.02-.31.03-.46.03Z"/>
    <path class="cls-5" d="M1109.84,110.72c-.67,0-1.3-.19-1.79-.77-.99-1.19-.26-2.68.32-3.88.39-.81.83-1.72.54-2.08-.3-.36-1.27-.08-2.14.16-1.29.36-2.89.81-3.88-.38-.99-1.19-.26-2.68.32-3.88.39-.8.84-1.72.54-2.07-.3-.36-.25-.89.11-1.18.36-.3.89-.25,1.18.11.99,1.19.26,2.68-.32,3.88-.39.8-.84,1.72-.54,2.07.29.36,1.27.08,2.14-.16,1.28-.36,2.89-.81,3.88.38.99,1.19.27,2.68-.32,3.88-.39.81-.84,1.72-.54,2.08.3.35,1.28.08,2.14-.16,1.29-.36,2.89-.81,3.88.38.3.36.25.89-.11,1.18s-.89.25-1.18-.11c-.3-.35-1.27-.08-2.14.16-.66.18-1.4.39-2.09.39Z"/>
    <path class="cls-5" d="M1139.81,164c-.23,0-.45-.09-.62-.27-.31-.34-.29-.87.05-1.19l10.4-9.56c.34-.31.87-.29,1.19.05.31.34.29.87-.05,1.19l-10.4,9.56c-.16.15-.37.22-.57.22Z"/>
  </g>
  <text class="cls-1" transform="translate(737.18 227.16)"><tspan x="0" y="0">Cuando escuches </tspan><tspan x="38.01" y="15.6">música</tspan></text>
  <text class="cls-4" transform="translate(1053.29 229)"><tspan class="cls-8" x="0" y="0">T</tspan><tspan class="cls-10" x="9.78" y="0">oda la noche</tspan></text>
</svg>