<?xml version="1.0" encoding="UTF-8"?>
<svg id="Capa_1" xmlns="http://www.w3.org/2000/svg" xmlns:xlink="http://www.w3.org/1999/xlink" viewBox="0 0 625.02 588.85">
  <defs>
    <style>
      .cls-1 {
        filter: url(#drop-shadow-3);
      }

      .cls-2 {
        fill: #353533;
      }
    </style>
    <filter id="drop-shadow-3" x="10.06" y="58.36" width="557" height="526" filterUnits="userSpaceOnUse">
      <feOffset dx="-24.51" dy="24.51"/>
      <feGaussianBlur result="blur" stdDeviation="17.51"/>
      <feFlood flood-color="#000" flood-opacity=".06"/>
      <feComposite in2="blur" operator="in"/>
      <feComposite in="SourceGraphic"/>
    </filter>
  </defs>
  <g class="cls-1">
    <path class="cls-2" d="M160.9,88.16c5.36,3.46,6.04,13.55,2.05,30.25-6.62,27.52-15.44,66.08-26.47,115.66-11.03,49.58-17.65,81.78-19.85,96.59v.16c.84.21,1.42.71,1.73,1.5.31.79.37,1.55.16,2.28-.63,1.58-1.13,2.76-1.5,3.55-.37.79-.89,1.57-1.58,2.36-.68.79-1.39,1.18-2.13,1.18-.42,0-.79-.05-1.1-.16-1.47-.53-2.29-1.71-2.45-3.54-.16-1.84.13-4.71.87-8.59.84-5.15,2.21-12.6,4.1-22.37,3.36-16.81,8.3-39.92,14.81-69.33,10.61-48.11,19.75-88.35,27.42-120.71,1.47-5.99,2.26-10.92,2.36-14.81.11-3.88-.05-6.28-.47-7.17-.42-.89-.84-1.5-1.26-1.81-1.89-1.15-5.52.37-10.87,4.57-5.78,4.52-12.11,11.24-18.99,20.17-6.88,8.93-13.18,18.51-18.91,28.76-5.73,10.25-10.03,20.64-12.92,31.2-2.89,10.56-3.23,19.15-1.02,25.76,3.04,9.04,11.19,13.66,24.42,13.87.84,0,1.55.29,2.13.87s.87,1.29.87,2.13-.29,1.55-.87,2.13c-.58.58-1.29.87-2.13.87-3.05,0-5.96-.26-8.74-.79-2.79-.52-5.62-1.42-8.51-2.68-2.89-1.26-5.46-3.13-7.72-5.59-2.26-2.47-3.96-5.44-5.12-8.9-.84-2.62-1.37-5.49-1.58-8.59-.21-3.1-.16-6.17.16-9.22.31-3.04.89-6.22,1.73-9.53.84-3.31,1.76-6.43,2.76-9.37,1-2.94,2.15-5.96,3.47-9.06,1.31-3.1,2.55-5.83,3.7-8.19,1.16-2.36,2.36-4.75,3.62-7.17,5.67-10.5,12.16-20.48,19.46-29.94,7.3-9.46,14.1-16.65,20.4-21.59,7.67-5.88,13.65-7.46,17.96-4.73Z"/>
    <path class="cls-2" d="M253.32,209.25c.79-.05,1.52.18,2.21.71s1.05,1.21,1.1,2.05c.05.84-.18,1.57-.71,2.21-3.99,4.62-8.56,7.96-13.71,10.01-5.15,2.05-10.03,2.44-14.66,1.18-5.36-1.36-9.51-4.67-12.45-9.93-2.63,9.14-6.62,18.12-11.98,26.95-3.57,5.99-7.2,10.95-10.87,14.89-3.68,3.94-6.99,6.38-9.93,7.32-1.05.31-2.05.48-2.99.48-1.89,0-3.47-.63-4.73-1.89-6.09-6.2-3.04-27.52,9.14-63.98.21-.73.71-1.29,1.5-1.66.79-.37,1.57-.42,2.36-.16.79.26,1.36.76,1.73,1.5.37.74.39,1.53.08,2.36-3.05,9.25-5.52,17.52-7.41,24.82-1.89,7.3-3.13,12.87-3.7,16.7-.58,3.83-.81,7.06-.71,9.69.1,2.63.26,4.28.47,4.97.21.68.47,1.13.79,1.34.32.32.84.32,1.58,0,2.94-.94,6.62-4.25,11.03-9.93,4.41-5.67,8.56-12.68,12.45-21.03,3.88-8.35,6.35-16.26,7.41-23.72.1-.74.44-1.34,1.02-1.81.58-.48,1.23-.76,1.97-.87,1.68,0,2.68.84,3,2.52,1.68,8.82,5.62,14.02,11.82,15.6,3.47.95,7.22.58,11.27-1.1,4.04-1.68,7.64-4.41,10.79-8.19.63-.63,1.34-.97,2.13-1.03Z"/>
    <path class="cls-2" d="M329.27,209.09c.79-.26,1.55-.21,2.29.16.73.37,1.23.95,1.49,1.73.26.79.24,1.55-.08,2.28-11.24,23.22-21.27,34.83-30.1,34.83-.53,0-1.1-.05-1.73-.16-7.04-1.37-11.4-10.82-13.08-28.37-5.15,6.94-9.72,12.61-13.71,17.02-3.57,3.78-6.62,5.1-9.14,3.94-2.52-.94-3.73-3.68-3.62-8.19,0-3.78.84-8.3,2.52-13.55,1.68-5.25,4.15-10.34,7.41-15.29,3.26-4.93,6.78-8.04,10.56-9.29,5.57-2,10.72-.16,15.44,5.51.53.63.76,1.37.71,2.21-.05.84-.4,1.53-1.03,2.05s-1.36.76-2.21.71c-.84-.05-1.53-.39-2.05-1.03-3.68-4.41-7.41-5.25-11.19-2.52-4.31,3.05-7.91,8.54-10.79,16.47-2.89,7.93-4.02,13.58-3.39,16.94.63-.52,1.36-1.21,2.21-2.05,4.2-4.51,9.35-10.98,15.44-19.38,1.36-1.89,2.31-3.2,2.84-3.94.84-1.05,1.94-1.39,3.31-1.02s2.1,1.29,2.21,2.76c.21,5.15.63,9.72,1.26,13.71.63,3.99,1.26,7.01,1.89,9.06.63,2.05,1.36,3.75,2.21,5.12.84,1.37,1.5,2.23,1.97,2.6s.97.55,1.5.55c1.47.31,3.33-.39,5.59-2.13,2.26-1.73,5.14-5.1,8.67-10.08,3.52-4.99,7.12-11.32,10.8-18.99.42-.84,1.02-1.39,1.81-1.66Z"/>
    <path class="cls-2" d="M402.93,208.86c.84-.21,1.63-.1,2.36.31.74.42,1.21,1.03,1.42,1.81.21.79.1,1.55-.31,2.28-3.57,6.3-6.67,11.3-9.3,14.97-2.63,3.68-5.3,6.57-8.04,8.67-2.73,2.1-5.41,3-8.04,2.68-5.25-.63-9.4-6.31-12.45-17.02-2.21-7.25-4.1-10.87-5.67-10.87-.31-.1-.76.03-1.34.4s-1.5,1.31-2.76,2.83c-1.26,1.53-2.65,3.6-4.18,6.22-1.53,2.63-3.52,6.51-5.99,11.66-2.47,5.15-5.12,11.24-7.96,18.28-.53,1.26-1.47,1.89-2.84,1.89-.21,0-.42-.05-.63-.16-1.79-.42-2.57-1.52-2.36-3.31,1.05-8.61,4.99-24.63,11.82-48.06.73-2.41,1.26-4.25,1.57-5.52.32-.84.84-1.44,1.58-1.81.74-.37,1.5-.45,2.28-.24.79.21,1.39.69,1.81,1.42.42.74.47,1.53.16,2.36-.21.74-.74,2.57-1.57,5.52-2.32,8.09-4.1,14.39-5.36,18.91,3.36-6.3,6.3-10.66,8.82-13.08,2.52-2.41,4.94-3.57,7.25-3.47,2.73.11,4.91,1.53,6.54,4.25,1.63,2.74,3.18,6.46,4.65,11.19,2.31,8.09,4.78,12.29,7.4,12.61,1.26.21,2.81-.5,4.65-2.13,1.84-1.62,3.81-3.99,5.91-7.09,2.1-3.1,3.7-5.54,4.8-7.33,1.1-1.79,2.39-4.04,3.86-6.77.42-.74,1.05-1.21,1.89-1.42Z"/>
    <path class="cls-2" d="M493.56,268.24c1.15,2,.84,4.6-.95,7.8-1.79,3.2-4.88,6.7-9.3,10.48-2.73,2.31-6.09,4.62-10.08,6.94,2.21,4.83,4.78,9.14,7.72,12.92.53.63.76,1.36.71,2.21-.05.84-.45,1.52-1.18,2.05-.53.42-1.16.63-1.89.63-.95,0-1.73-.37-2.36-1.1-3.15-4.1-5.94-8.77-8.35-14.02-5.04,2.41-10.06,4.31-15.05,5.67-4.99,1.36-9.64,1.97-13.95,1.81-4.31-.16-7.41-1.24-9.3-3.23-5.36-5.89-.26-16.39,15.29-31.52,5.36-5.25,10.14-10.34,14.34-15.29-.11-7.46.42-14.6,1.58-21.43,1.05-6.09,2.99-10.95,5.83-14.57,2.83-3.62,5.72-5.65,8.67-6.07,3.47-.52,5.99.79,7.56,3.94,1.68,3.47,1.18,8.67-1.5,15.6-2.68,6.93-8.01,15.18-15.99,24.74.31,11.87,2.21,22.54,5.67,31.99,3.15-1.89,5.93-3.83,8.35-5.83,4.62-3.99,7.46-7.35,8.51-10.08-.11.11-.31.16-.63.16-.74.31-1.47.29-2.21-.08-.74-.37-1.26-.95-1.58-1.73-.31-.79-.29-1.55.08-2.28.37-.74.97-1.26,1.81-1.58,3.99-1.36,6.72-.74,8.2,1.89ZM434.15,296.29c1.68,1.79,5.67,2.1,11.98.95,6.31-1.16,12.82-3.36,19.54-6.62-3.15-8.61-5.15-18.07-5.99-28.36-3.26,3.57-6.77,7.25-10.56,11.03-2.94,2.74-5.46,5.33-7.56,7.8-2.1,2.47-3.68,4.52-4.73,6.15-1.05,1.63-1.87,3.13-2.44,4.49-.58,1.36-.82,2.34-.71,2.91.1.58.26,1.13.47,1.66ZM466.77,233.26c-.63,3.89-1.05,8.09-1.26,12.6,2.84-3.78,5.23-7.38,7.17-10.79,1.94-3.41,3.23-6.15,3.86-8.19.63-2.05,1.05-3.91,1.26-5.59.21-1.68.05-2.73-.48-3.15-.21-.42-.47-.63-.79-.63h-.31c-1.68.31-3.47,1.87-5.36,4.65-1.89,2.79-3.26,6.49-4.1,11.11Z"/>
    <path class="cls-2" d="M315.98,390.12c.75-.38,1.54-.43,2.36-.14.82.3,1.39.82,1.73,1.58.33.76.38,1.52.13,2.28-8.43,23.34-17.11,43.32-26.04,59.96-8.93,16.63-17.82,29.41-26.66,38.34-8.84,8.92-17.34,13.76-25.5,14.5-2.41.22-4.79.06-7.16-.46-7.64-1.63-14.15-6.92-19.56-15.87-5.4-8.95-9.17-20.53-11.3-34.73-2.13-14.2-2.61-30.54-1.44-49,1.3-19.31,4.7-39.45,10.18-60.42,6.41-24.63,14.1-43.42,23.05-56.36,7.28-10.47,13.97-14.56,20.09-12.27,4.26,1.62,7.44,6.1,9.53,13.45,2.09,7.35,3.18,16.72,3.26,28.1.09,11.39-.3,22.84-1.15,34.36s-2.15,24.01-3.88,37.45c-.14.75-.56,1.4-1.25,1.93-.69.54-1.44.74-2.24.6-.8-.14-1.47-.52-2-1.16-.53-.64-.73-1.38-.6-2.24,1.87-14.31,3.21-27.37,4.04-39.21.82-11.84,1.17-21.7,1.03-29.6-.14-7.9-.62-14.66-1.45-20.28-.83-5.62-1.87-9.83-3.12-12.61-1.26-2.78-2.7-4.47-4.34-5.07-1.53-.6-3.43,0-5.69,1.78-2.27,1.79-4.65,4.48-7.18,8.09-8.29,12.04-15.39,29.11-21.3,51.22-5.9,22.11-9.55,42.98-10.93,62.62-1.85,26.12-.03,47.94,5.47,65.48,2.52,8,5.68,14.38,9.49,19.15,3.81,4.77,8.02,7.63,12.65,8.58,10.23,2.24,21.68-4.61,34.37-20.53,14.96-18.76,29.6-48.04,43.92-87.85.25-.76.75-1.33,1.51-1.72Z"/>
    <path class="cls-2" d="M391.46,384.93c.76-.33,1.52-.35,2.29-.05.76.3,1.31.83,1.65,1.59.33.76.38,1.52.13,2.28-9.09,24.14-18.03,36.61-26.82,37.4-.52.05-1.1.05-1.74,0-7.13-.73-12.33-9.74-15.59-27.07-4.5,7.37-8.54,13.44-12.11,18.19-3.22,4.09-6.13,5.67-8.75,4.75-2.6-.71-4.04-3.32-4.35-7.83-.34-3.77.09-8.34,1.28-13.72,1.2-5.38,3.2-10.68,5.99-15.89,2.8-5.21,6.02-8.62,9.67-10.21,5.36-2.49,10.66-1.13,15.88,4.09.58.58.88,1.29.91,2.13.02.85-.26,1.55-.84,2.14s-1.29.88-2.13.9c-.84.02-1.55-.25-2.13-.84-4.06-4.06-7.85-4.56-11.37-1.5-4.02,3.42-7.1,9.22-9.26,17.37-2.16,8.16-2.77,13.89-1.84,17.18.58-.58,1.25-1.33,2.01-2.24,3.78-4.88,8.32-11.78,13.63-20.7,1.19-2.01,2.01-3.4,2.47-4.18.74-1.12,1.81-1.56,3.2-1.32s2.21,1.09,2.45,2.55c.68,5.11,1.51,9.62,2.5,13.54.99,3.92,1.89,6.87,2.7,8.85.81,1.98,1.7,3.62,2.66,4.9.96,1.29,1.69,2.09,2.2,2.41s1.02.46,1.54.41c1.49.18,3.28-.69,5.38-2.62,2.09-1.93,4.66-5.54,7.72-10.83,3.05-5.29,6.06-11.92,9.03-19.89.34-.88.89-1.48,1.65-1.81Z"/>
    <path class="cls-2" d="M468.61,377.3c.76-.33,1.52-.35,2.29-.05.77.3,1.34.83,1.73,1.58.38.75.4,1.52.05,2.29-2.28,6.33-4.9,12.84-7.88,19.54-2.98,6.71-6.29,13.52-9.93,20.44-3.64,6.92-7.37,12.64-11.18,17.15-3.81,4.51-7.18,6.9-10.11,7.17-.73.07-1.43-.03-2.08-.29-4.44-1.28-6.39-7.65-5.85-19.09.51-10.7,3.02-26.01,7.54-45.93-.11,0-.18.04-.23.1-.05.06-.13.09-.23.1-2.16,1.78-3.96,3.15-5.4,4.13-1.44.98-3.4,2.1-5.86,3.38-2.47,1.28-4.86,1.97-7.17,2.08-2.31.1-4.52-.43-6.63-1.61-4.23-2.47-6.63-6.2-7.19-11.21-.56-5.01.82-10.68,4.15-16.99,2.07-3.99,4.67-7.54,7.81-10.68,3.14-3.13,5.99-4.03,8.54-2.67,1.54.7,2.53,1.99,2.96,3.84.43,1.86-.16,5.58-1.76,11.16-1.61,5.58-4.47,12.93-8.6,22.06,3.28.12,8.41-2.61,15.39-8.2,1.27-1.06,2.23-1.81,2.88-2.24.64-.43,1.39-.89,2.25-1.39.85-.5,1.6-.73,2.23-.68.64.05,1.29.25,1.95.62,1.68,1.11,2.14,3.28,1.38,6.52-7.52,33.38-9.86,53.43-7.04,60.13.25.4.43.7.56.9.85.03,2.07-.77,3.66-2.39,1.59-1.62,3.53-4.12,5.81-7.49,2.28-3.37,4.71-7.39,7.29-12.05,2.58-4.66,5.39-10.35,8.42-17.06,3.03-6.71,5.89-13.83,8.58-21.35.34-.88.9-1.48,1.66-1.81ZM406.68,372.24c-.61,3.75-.13,6.66,1.42,8.73,6.43-13.98,9.69-23.35,9.79-28.1-1.19.85-2.52,2.18-3.99,4-1.47,1.82-2.94,4.14-4.43,6.97-1.48,2.83-2.42,5.63-2.8,8.4Z"/>
    <path class="cls-2" d="M534.99,372.14c.83-.18,1.6-.04,2.33.42s1.18,1.1,1.36,1.93c.18.83.04,1.58-.43,2.25-3.79,5.93-8.52,10.74-14.19,14.42-5.68,3.68-11.19,5.18-16.52,4.51-1.14,3.69-2.93,6.67-5.36,8.95-2.43,2.28-5.06,3.55-7.88,3.8h-.16c-2.84.17-5.41-.58-7.72-2.21-2.31-1.63-4.03-4.04-5.16-7.21-1.82-5-2.03-9.91-.63-14.74,1.41-4.82,3.74-8.49,6.99-11,.68-.59,1.51-.77,2.48-.54.73-2.38,1.9-4.29,3.52-5.7,1.61-1.41,3.37-2.05,5.29-1.9,1.06.12,2.07.47,3.02,1.07s1.94,1.59,2.96,2.97c1.02,1.39,1.88,3.58,2.57,6.57.69,3,1.12,6.6,1.3,10.8-.01,1.06-.07,2.12-.18,3.18,4.05.48,8.38-.92,12.99-4.19,4.61-3.26,8.43-7.3,11.48-12.12.46-.68,1.11-1.1,1.94-1.29ZM493.74,402.31c1.46-.13,2.94-.95,4.44-2.46,1.5-1.51,2.67-3.46,3.5-5.86-7.14-3.15-11.16-7.95-12.07-14.41-1.91,2.18-3.11,4.98-3.59,8.4-.48,3.42-.19,6.35.88,8.78,1.52,3.98,3.8,5.83,6.84,5.55ZM502.61,386.79c-.02-2.53-.19-4.7-.51-6.52-.32-1.81-.64-3.29-.95-4.42-.32-1.13-.66-2.05-1.04-2.76-.38-.7-.72-1.2-1-1.49-.29-.29-.49-.43-.59-.42h-.16c-.42.05-.91.44-1.47,1.18-.57.74-.96,1.69-1.16,2.87-.43,2.25-.12,4.5.93,6.72,1.05,2.23,3.07,4.15,6.06,5.78l-.09-.94Z"/>
  </g>
</svg>