<svg viewBox="58.24557491289199 43.2376 133.70006968641115 131.4776" xmlns="http://www.w3.org/2000/svg" id="Capa_1" style="max-height: 500px" width="133.70006968641115" height="131.4776">
  <defs>
    <style>
      .cls-1 {
        fill: #fff;
      }
    </style>
  </defs>
  <g>
    <g>
      <path d="M77.7,76.3c-.15.01-.24.05-.3.02-2.17-1-4.31-2.05-6.35-3.29-.1-.06-.22-.12-.28-.21-.05-.08-.08-.24-.03-.31.05-.08.2-.1.31-.14.03-.01.08,0,.11.02,1.98.83,3.96,1.67,5.78,2.81.26.17.48.41.68.65.08.1.05.28.08.44Z" class="cls-1"/>
      <path d="M76.16,94.03c-.25.04-.38.09-.51.08-4.51-.65-9.02-1.35-13.49-2.28-.22-.05-.47-.08-.65-.17-.15-.08-.32-.24-.29-.32.03-.09.27-.14.43-.19.05-.02.14,0,.22,0,4.06.51,8.12,1.02,12.15,1.89.58.12,1.15.34,1.68.55.21.09.31.28.46.44Z" class="cls-1"/>
      <path d="M94.98,71.18c-.28-.19-.45-.26-.56-.38-4.28-4.52-8.52-9.09-12.61-13.81-.2-.23-.44-.49-.57-.71-.11-.2-.2-.48-.12-.52.09-.05.36.12.56.22.06.03.15.12.22.2,3.89,4.01,7.79,8.02,11.44,12.29.53.61.99,1.29,1.41,1.94.17.26.15.51.23.77Z" class="cls-1"/>
      <path d="M105.74,53.8c-.12-.06-.22-.08-.24-.13-1.05-1.8-2.06-3.62-2.86-5.54-.04-.1-.1-.2-.09-.3,0-.09.09-.22.17-.26.09-.04.21.02.32.04.03,0,.05.04.07.07,1.01,1.58,2.02,3.16,2.72,4.91.1.25.12.54.13.83,0,.11-.13.24-.21.37Z" class="cls-1"/>
      <path d="M126.6,60.64c-.06-.22-.13-.32-.12-.43.26-3.91.59-7.82,1.13-11.72.03-.19.04-.41.12-.56.06-.13.21-.29.29-.27.09.02.16.23.23.36.02.04.02.12.01.19-.17,3.52-.33,7.04-.85,10.54-.07.5-.24,1-.41,1.47-.07.18-.25.28-.39.42Z" class="cls-1"/>
      <path d="M147.75,54.41c0-.17-.03-.26,0-.33,1.19-2.42,2.44-4.81,3.88-7.1.07-.11.14-.25.24-.32.09-.06.26-.1.33-.05.08.06.09.21.12.33,0,.04-.01.09-.03.13-1.01,2.21-2.02,4.41-3.35,6.46-.19.29-.46.54-.73.77-.11.09-.3.07-.46.1Z" class="cls-1"/>
      <path d="M155.2,75.33c.21-.34.29-.52.42-.67,4.98-5.33,10.01-10.61,15.21-15.75.26-.25.54-.55.78-.72.22-.15.53-.29.57-.21.05.09-.14.41-.25.63-.03.07-.14.18-.22.27-4.42,4.83-8.84,9.66-13.54,14.27-.68.66-1.42,1.27-2.13,1.83-.28.22-.55.25-.84.36Z" class="cls-1"/>
      <path d="M179.86,84.64c.16-.16.22-.27.32-.32,3.59-1.76,7.21-3.47,10.93-4.98.18-.07.38-.17.56-.19.15-.01.36.04.38.12.03.09-.12.25-.21.38-.03.04-.1.08-.16.11-3.2,1.65-6.39,3.29-9.75,4.62-.48.19-1.01.3-1.5.39-.2.04-.37-.08-.57-.13Z" class="cls-1"/>
      <path d="M190.25,106.53c-.33.08-.49.16-.66.16-6.19.11-12.38.17-18.58,0-.31,0-.65,0-.9-.06-.22-.05-.48-.18-.47-.26.02-.09.33-.18.54-.26.06-.02.19-.03.29-.03,5.55-.17,11.11-.34,16.7-.16.8.03,1.61.14,2.37.27.3.05.47.23.72.35Z" class="cls-1"/>
      <path d="M191.85,124.72c-.4.02-.6.07-.8.04-7.34-.98-14.67-2.03-21.98-3.29-.36-.06-.77-.12-1.06-.22-.25-.09-.55-.26-.51-.34.04-.09.42-.12.67-.16.08-.01.23,0,.35.02,6.59.81,13.19,1.63,19.77,2.79.95.17,1.89.43,2.77.68.35.1.53.31.8.48Z" class="cls-1"/>
      <path d="M179.99,147.98c-.29-.06-.45-.06-.58-.13-4.81-2.44-9.6-4.93-14.29-7.62-.23-.13-.5-.27-.67-.42-.15-.13-.29-.36-.23-.42.06-.07.34-.02.53-.01.06,0,.16.05.24.09,4.35,2.13,8.7,4.26,12.91,6.71.61.35,1.17.79,1.7,1.21.21.17.26.39.39.61Z" class="cls-1"/>
      <path d="M170.13,169.69c-.2-.14-.33-.19-.4-.29-2.62-3.49-5.19-7.02-7.58-10.68-.12-.18-.26-.38-.32-.55-.05-.16-.05-.38.03-.42.09-.04.28.09.43.16.05.02.1.09.14.15,2.41,3.09,4.81,6.19,6.94,9.5.31.48.54,1.01.75,1.52.08.2,0,.4,0,.62Z" class="cls-1"/>
      <path d="M145.58,171.36c-.14-.21-.25-.3-.28-.41-1.32-4.26-2.58-8.53-3.63-12.87-.05-.21-.12-.45-.12-.64,0-.17.08-.38.16-.39.1,0,.24.18.36.3.04.04.06.12.09.19,1.25,3.8,2.5,7.6,3.41,11.52.13.56.18,1.15.21,1.71.01.22-.13.39-.2.59Z" class="cls-1"/>
      <path d="M125.21,176.11c-.08-.26-.15-.38-.15-.52-.06-4.83-.06-9.65.16-14.48.01-.24.01-.51.07-.7.05-.17.19-.37.27-.36.09.02.18.26.26.42.02.05.03.15.03.23.12,4.33.25,8.66.02,13.01-.03.63-.16,1.25-.29,1.84-.05.23-.23.37-.36.55Z" class="cls-1"/>
      <path d="M91.48,172.89c.04-.28.04-.42.09-.55,2.13-4.53,4.31-9.03,6.69-13.45.12-.22.24-.47.38-.63.12-.14.34-.27.4-.22.08.06.04.32.04.5,0,.06-.04.15-.08.23-1.85,4.1-3.69,8.19-5.86,12.15-.31.57-.71,1.1-1.09,1.6-.15.2-.37.24-.57.36Z" class="cls-1"/>
      <path d="M79.73,142.62c.04-.15.04-.25.09-.29,1.73-1.69,3.5-3.34,5.41-4.82.09-.07.19-.17.3-.19.1-.02.26.01.31.08.06.08.02.22.01.34,0,.03-.04.07-.06.1-1.5,1.57-3.01,3.14-4.75,4.45-.25.19-.56.31-.86.41-.12.04-.29-.05-.44-.08Z" class="cls-1"/>
      <path d="M61.6,127.02c.32-.22.47-.36.65-.44,6.63-2.83,13.29-5.61,20.03-8.19.33-.13.7-.28,1-.34.26-.05.59-.05.6.04.01.1-.29.31-.48.48-.06.05-.19.11-.3.16-5.92,2.6-11.85,5.21-17.94,7.5-.88.33-1.79.58-2.66.8-.34.09-.6,0-.91,0Z" class="cls-1"/>
      <path d="M85.22,106.13c-.28.11-.41.19-.56.21-5.38.58-10.78,1.09-16.19,1.39-.27.01-.57.04-.79,0-.2-.03-.44-.14-.43-.23.01-.1.27-.2.44-.3.05-.03.16-.04.25-.05,4.82-.59,9.65-1.17,14.53-1.41.7-.03,1.42.02,2.09.09.27.03.43.19.66.3Z" class="cls-1"/>
    </g>
    <g>
      <path d="M88.68,97.22c.17,3.03.32,4.49.33,6.05.08,17.03.16,34.07.24,51.11,24.56-.44,49.14-.89,73.74-1.33.04-14.18.07-28.38.11-42.58.01-2.82,0-5.99.11-8.33.09-2.04.35-4.47.52-4.3.19.2.36,3.03.53,4.91.05.57.06,1.76.07,2.68.13,16.43.25,32.85.38,49.29-12.81.28-25.63.56-38.47.84-12.93.23-25.88.47-38.84.7.03-10.18.06-20.36.09-30.56.04-7.4.26-14.85.5-21.85.09-2.77.45-4.39.69-6.64Z" class="cls-1"/>
      <path d="M175.7,97.4c-.43-3.64-.71-5.39-.85-7.27l-.71-9.39c-31.59.1-63.2.2-94.82.3-.18,5.11-.35,10.23-.53,15.34,27.29.03,54.61.07,81.94.1,3.41.01,7.24,0,10.06.11,2.47.09,5.4.35,5.19.52-.25.19-3.66.36-5.93.53-.69.05-2.12.06-3.24.07-29.96.18-59.93.35-89.94.53.21-6.37.41-12.73.62-19.1,13.49-.02,27-.04,40.52-.06,13.22.03,26.45.06,39.69.09,2.87.03,5.74.06,8.59.09,3.05.06,6.09.11,9.07.17.05,1,.1,1.99.16,2.98.04.79.07,1.57.11,2.34.07,1.55.14,3.08.2,4.6.14,3.34-.07,5.31-.12,8.05Z" class="cls-1"/>
      <path d="M119.05,154.76c-.18-.91-.33-1.35-.34-1.83-.45-17.21-.79-34.44-.68-51.69,0-.85-.01-1.81.09-2.52.09-.62.34-1.35.51-1.3.19.06.37.91.54,1.48.05.17.06.53.07.81.55,15.44,1.09,30.89.94,46.43-.02,2.24-.23,4.49-.45,6.6-.09.84-.44,1.33-.68,2.01Z" class="cls-1"/>
      <path d="M129.96,154.67c-.18-.91-.33-1.35-.34-1.83-.45-17.21-.79-34.44-.68-51.69,0-.85-.01-1.81.09-2.52.09-.62.34-1.35.51-1.3.19.06.37.91.54,1.48.05.17.06.53.07.81.55,15.44,1.09,30.89.94,46.43-.02,2.24-.23,4.49-.45,6.6-.09.84-.44,1.33-.68,2.01Z" class="cls-1"/>
      <path d="M116.12,97.39c-.18-.27-.34-.4-.35-.54-.51-5.18-.89-10.37-.84-15.58,0-.26-.02-.55.08-.76.09-.19.34-.42.51-.41.19.01.37.26.55.43.05.05.07.16.08.24.59,4.64,1.19,9.29,1.08,13.99-.02.68-.21,1.36-.43,2.01-.08.26-.43.42-.67.63Z" class="cls-1"/>
      <path d="M131.9,97.39c-.18-.27-.34-.4-.35-.54-.51-5.18-.89-10.37-.84-15.58,0-.26-.02-.55.08-.76.09-.19.34-.42.51-.41.19.01.37.26.55.43.05.05.07.16.08.24.59,4.64,1.19,9.29,1.08,13.99-.02.68-.21,1.36-.43,2.01-.08.26-.43.42-.67.63Z" class="cls-1"/>
      <path d="M128.23,79.79c.48-.19.65-.38.87-.45,1-.29,1.81-1.07,2.17-2,.18-.49.24-.93.21-1.5-.02-.59-.02-1.27-.06-1.79-.07-.98-.63-1.87-1.42-2.39-.4-.26-.85-.42-1.32-.48-.4-.05-1.1-.01-1.7-.01-2.19-.2-3.77,1.39-3.62,3.51v.92s0,.46,0,.46c0,.12,0,.23.02.35.05.46.2.91.45,1.31.49.8,1.36,1.36,2.31,1.48.1,0,.19.01.29.02h.37c.25.02.48.05.68.1.35.09.77.35.74.52-.04.19-.52.36-.84.53-.1.05-.3.06-.46.07-.52.04-1.17.05-1.75-.1-.59-.14-1.15-.41-1.65-.78-.98-.74-1.66-1.93-1.78-3.2-.05-.63-.05-1.12-.08-1.69l-.02-.41v-.49c.03-.32.09-.65.17-.97.35-1.27,1.26-2.38,2.46-2.99.6-.31,1.26-.49,1.94-.52.62-.03,1.12-.03,1.69-.04.25,0,.6,0,.94.03.34.04.68.11,1,.22.65.22,1.25.57,1.76,1.03,1.02.91,1.64,2.28,1.63,3.65l-.03,1.67c0,.58-.1,1.34-.36,1.94-.57,1.48-2.06,2.42-3.39,2.53-.53.06-.88-.29-1.24-.52Z" class="cls-1"/>
      <path d="M117.87,80.36c-.94-.13-1.41-.14-1.87-.3-2.07-.72-4.1-1.58-6.07-2.56-1.95-.98-3.93-2.13-5.59-3.71-1.65-1.56-3.03-3.52-3.71-5.79-.67-2.28-.58-4.78.39-7.01.91-2.25,3.02-4.07,5.38-4.67,2.35-.64,4.86-.36,7.03.63,2.16.99,3.94,2.58,5.36,4.36,1.42,1.8,2.47,3.81,3.35,5.84.35.8.74,1.7.91,2.4.15.61.19,1.4.01,1.41-.2.01-.69-.72-1.06-1.18-.11-.14-.26-.47-.38-.72-1.59-3.51-3.53-6.96-6.55-9.19-1.48-1.11-3.2-1.87-4.98-2.05-1.78-.18-3.62.17-5.03,1.12-1.42.94-2.37,2.49-2.74,4.2-.37,1.71-.24,3.53.42,5.16.65,1.65,1.75,3.14,3.08,4.4,1.33,1.28,2.91,2.27,4.59,3.21,1.93,1.07,3.88,2.18,5.78,3.14.75.38,1.1.87,1.68,1.32Z" class="cls-1"/>
      <path d="M122.11,74.67c-.52-.64-.84-.9-1.05-1.25-.96-1.62-1.99-3.22-3.05-4.78-1.06-1.56-2.17-3.07-3.48-4.3-.66-.61-1.36-1.16-2.11-1.51-.76-.36-1.6-.6-2.42-.65-.82-.06-1.62.08-2.23.44-.61.35-1.15.99-1.47,1.7-.66,1.42-.64,3.3.08,4.65.75,1.4,2.23,2.51,3.78,3.5,3.18,1.91,6.6,3.72,9.95,5.45.67.34,1.43.68,1.94,1.02.45.3.93.74.84.89-.1.17-.88.07-1.41,0-.16-.02-.46-.14-.69-.24-3.16-1.37-6.23-2.88-9.29-4.45-1.52-.8-3.07-1.63-4.49-2.75-.71-.57-1.39-1.22-1.93-2.02-.56-.79-.92-1.77-1.07-2.72-.29-1.9.11-3.99,1.45-5.57.34-.39.72-.73,1.18-1.03.46-.28.96-.49,1.47-.62,1.02-.24,2.03-.21,2.98-.02.96.19,1.86.55,2.7,1.05.84.52,1.53,1.12,2.18,1.78,1.28,1.31,2.3,2.78,3.23,4.25,1.07,1.7,1.93,3.52,2.66,5.28.28.7.18,1.25.23,1.89Z" class="cls-1"/>
      <path d="M136.31,79.8c.82-.45,1.18-.74,1.62-.91,1.99-.78,3.95-1.68,5.82-2.7,1.88-1.02,3.66-2.14,5.11-3.61,1.45-1.45,2.6-3.2,3.13-5.11.52-1.88.39-3.98-.4-5.72-.77-1.77-2.3-3.06-4.15-3.54-1.85-.5-3.91-.29-5.68.52-1.81.81-3.38,2.16-4.68,3.76-1.3,1.59-2.32,3.45-3.23,5.37-.36.76-.72,1.65-1.09,2.26-.32.53-.84,1.12-.98,1.01-.15-.13,0-.99.08-1.59.02-.18.15-.52.25-.78,1.41-3.61,3.19-7.32,6.38-9.94,1.56-1.3,3.49-2.27,5.58-2.58,2.07-.3,4.31,0,6.19,1.18,1.89,1.16,3.16,3.16,3.65,5.25.5,2.09.36,4.34-.44,6.33-1.57,4.02-5.13,6.76-8.68,8.48-2.05,1.05-4.26,1.77-6.35,2.3-.83.21-1.42.03-2.14,0Z" class="cls-1"/>
      <path d="M131.45,79.8c.68-.42.96-.73,1.33-.9,3.38-1.65,6.73-3.52,10-5.41,1.6-.94,3.21-1.97,4.36-3.23.58-.63,1-1.34,1.21-2.09.21-.78.27-1.62.13-2.42-.23-1.6-1.28-3.07-2.68-3.39-1.45-.36-3.29.12-4.61,1.05-1.41.99-2.6,2.41-3.68,3.91-1.08,1.51-2.12,3.12-3.11,4.72-.39.64-.8,1.37-1.19,1.85-.34.42-.87.87-.99.76-.15-.13.05-.89.15-1.41.03-.16.18-.44.3-.66.81-1.52,1.67-3,2.56-4.47.9-1.47,1.85-2.93,3.03-4.27.59-.66,1.24-1.29,1.98-1.84.76-.56,1.61-.98,2.52-1.25.9-.27,1.87-.4,2.86-.29.98.1,2.03.53,2.78,1.24,1.53,1.38,2.17,3.45,2.06,5.38-.05.97-.29,1.97-.77,2.86-.47.89-1.12,1.62-1.81,2.26-1.39,1.25-2.92,2.15-4.45,2.99-1.52.84-3.05,1.63-4.6,2.4-1.78.88-3.67,1.59-5.49,2.17-.72.22-1.27.07-1.9.03Z" class="cls-1"/>
    </g>
  </g>
  <path d="M82.15,68.6c-.1-1.02-.22-1.5-.28-2.01-.25-2.33-1.14-4.67-2.97-6.09-.89-.7-2-1.15-3.09-1.13-1.09.02-2.21.51-2.73,1.4-.54.83-.19,2.11.6,2.66.39.28.86.32,1.29.14.43-.19.8-.58,1.01-1.04.43-.92.19-2.09-.29-3.11-.48-1.04-1.14-2.01-1.96-2.79-.82-.77-1.84-1.33-2.91-1.47-1.05-.14-2.19.19-3.03.85-.83.63-1.36,1.73-1.09,2.66.25.95,1.17,1.8,2.14,1.96.48.08.96,0,1.33-.29.37-.3.63-.72.72-1.23.19-1-.2-2.16-.91-2.91-1.5-1.57-4.28-1.84-5.99-.43-.7.53-1.25,1.38-1.54,2.04-.28.57-.46,1.35-.53,1.29-.1-.07-.09-1.04.12-1.67.05-.2.23-.57.4-.84.59-.94,1.48-1.72,2.54-2.12,1.06-.4,2.25-.42,3.33-.1,1.08.32,2.1.96,2.74,1.96.62.97.9,2.2.53,3.37-.18.58-.58,1.1-1.11,1.44-.53.34-1.2.44-1.8.33-1.21-.23-2.21-1.08-2.69-2.2-.51-1.17-.1-2.55.69-3.43.8-.91,1.93-1.44,3.1-1.59,1.19-.16,2.4.19,3.39.78,1,.6,1.83,1.43,2.48,2.36.64.94,1.18,1.94,1.44,3.11.12.58.15,1.21,0,1.83-.16.62-.48,1.19-.96,1.63-.48.44-1.16.73-1.87.66-.72-.08-1.32-.5-1.7-1.02-.38-.53-.6-1.15-.61-1.8-.03-.65.24-1.34.63-1.82.81-1.01,2.06-1.45,3.26-1.47,1.22,0,2.37.45,3.31,1.12,1.09.79,1.92,1.88,2.43,3.07.52,1.19.74,2.44.83,3.63.06.95-.1,1.51-.21,2.27Z" class="cls-1"/>
  <path d="M169.53,73.07c-.07-1.03-.1-1.54-.05-2.08.12-1.22.39-2.45.89-3.59.5-1.15,1.26-2.2,2.25-3,.99-.8,2.23-1.34,3.56-1.34,1.29.01,2.68.55,3.43,1.76.37.6.48,1.38.31,2.05-.16.67-.52,1.32-1.12,1.75-.59.45-1.46.55-2.14.25-.68-.29-1.19-.85-1.48-1.47-.62-1.32-.25-2.75.25-3.88.52-1.15,1.23-2.22,2.16-3.11.93-.88,2.11-1.55,3.44-1.74,1.34-.17,2.7.21,3.77,1.04,1.05.81,1.83,2.23,1.44,3.69-.4,1.37-1.53,2.42-2.93,2.68-.7.13-1.51-.02-2.1-.49-.57-.45-.96-1.14-1.07-1.83-.23-1.39.25-2.76,1.19-3.75,1.87-1.92,5.16-2.18,7.23-.45.82.64,1.49,1.64,1.72,2.47.24.72.15,1.61.06,1.55-.09-.07-.28-1.02-.63-1.55-.09-.17-.27-.51-.44-.76-.58-.87-1.42-1.57-2.4-1.91-.98-.34-2.06-.34-3.04-.02-.97.31-1.88.93-2.4,1.78-.52.85-.72,1.94-.41,2.85.3.92,1.25,1.49,2.17,1.27.92-.19,1.76-.92,2.1-1.79.36-.87.05-1.88-.59-2.59-.65-.72-1.61-1.16-2.58-1.27-.97-.12-1.95.17-2.81.69-.86.52-1.58,1.27-2.17,2.12-.57.85-1.06,1.81-1.26,2.76-.21.95,0,1.93.66,2.53.32.29.73.44,1.11.41.38-.04.74-.27,1-.63.53-.73.6-1.74.01-2.43-.55-.71-1.54-1.11-2.5-1.12-.96-.02-1.95.34-2.78.91-1.96,1.33-3.01,3.72-3.38,6.02-.15.91-.35,1.45-.48,2.21Z" class="cls-1"/>
</svg>